<?xml version="1.0" encoding="utf-8"?>
<!-- Generator: Adobe Illustrator 26.0.1, SVG Export Plug-In . SVG Version: 6.00 Build 0)  -->
<svg width="300px" height="300px" enable-background="new 0 0 48 48" version="1.0" id="Layer_1" xmlns="http://www.w3.org/2000/svg" xmlns:xlink="http://www.w3.org/1999/xlink" x="0px" y="0px"
	 viewBox="0 0 595.28 841.89" style="enable-background:new 0 0 595.28 841.89;" xml:space="preserve">
<style type="text/css">
	.st0{fill:#00A651;}
	.st1{fill:#FFFFFF;stroke:#000000;stroke-miterlimit:10;}
	.st2{fill:#F7941D;stroke:#000000;stroke-miterlimit:10;}
	.st3{fill:#FFF200;}
	.st4{fill:none;}
	.st5{fill:#63574B;}
	.st6{fill:#937450;}
	.st7{fill:#C48843;}
	.st8{fill:#F7941D;}
	.st9{font-family:'Noteworthy-Light';}
	.st10{font-size:24px;}
</style>
<rect class="st0" width="595.28" height="841.89"/>
<polyline class="st1" points="264.52,513.67 244.01,555.17 252.07,555.17 260.18,555.17 390.96,555.17 371.05,512.66 "/>
<ellipse class="st1" cx="316.92" cy="461.42" rx="87.08" ry="65.42"/>
<ellipse class="st1" cx="314.83" cy="359.33" rx="45.83" ry="36.67"/>
<ellipse class="st1" cx="239.42" cy="469.33" rx="19.58" ry="57.5"/>
<ellipse class="st1" cx="396.94" cy="461.42" rx="19.58" ry="57.5"/>
<polyline class="st2" points="297.64,525.22 297.64,581 259,616 259,603.5 245.67,607.67 250.67,597.67 234,597.67 276.5,580.17 
	275.36,518.92 "/>
<polyline class="st2" points="355.25,518.92 355.25,576.83 382.75,595.17 361.08,591.83 364.42,601 348.58,592.67 338.58,606 
	338.58,576.83 338.58,525.22 "/>
<g>
	<g>
		<path d="M292.33,347.67c3.22,0,3.22-5,0-5C289.12,342.67,289.11,347.67,292.33,347.67L292.33,347.67z"/>
	</g>
</g>
<g>
	<g>
		<path d="M338.17,346c3.22,0,3.22-5,0-5C334.95,341,334.94,346,338.17,346L338.17,346z"/>
	</g>
</g>
<g>
	<g>
		<path d="M309.83,356.83c3.22,0,3.22-5,0-5C306.62,351.83,306.61,356.83,309.83,356.83L309.83,356.83z"/>
	</g>
</g>
<g>
	<g>
		<path d="M321.5,356.83c3.22,0,3.22-5,0-5C318.28,351.83,318.28,356.83,321.5,356.83L321.5,356.83z"/>
	</g>
</g>
<g>
	<g>
		<path d="M303.94,351.72c-8.39,4.03-16.78,8.06-25.18,12.09c-6.48,3.11-13.05,6.15-18.54,10.89c-4.77,4.11-9.4,10.87-8.1,17.52
			c0.38,1.96,1.67,3.65,3.57,4.33c1.99,0.71,4.41,0.38,6.48,0.37c4.64-0.02,9.29-0.05,13.93-0.09c18.58-0.14,37.16-0.37,55.75-0.57
			c9.3-0.1,18.6-0.2,27.91-0.31c3.95-0.04,9,0.31,10.65-4.2c1.3-3.54-0.75-7.25-2.98-9.9c-4.62-5.48-11.5-8.25-17.73-11.42
			c-6.52-3.32-12.38-7.73-16.75-13.66c-1.12-1.52-2.14-3.1-3.07-4.74c-1.59-2.79-5.92-0.28-4.32,2.52
			c3.59,6.3,8.53,11.71,14.42,15.93c5.49,3.92,11.89,6.19,17.62,9.7c2.55,1.56,5.05,3.44,6.82,5.88c0.74,1.02,1.49,2.37,1.36,3.66
			c-0.02,0.21-0.06,0.47-0.25,0.67c-0.43,0.44-1.25,0.48-1.83,0.51c-4.21,0.22-8.46,0.11-12.67,0.15c-4.4,0.05-8.8,0.1-13.21,0.14
			c-17.42,0.19-34.85,0.4-52.27,0.56c-8.71,0.08-17.41,0.14-26.12,0.18c-1.23,0.01-2.31,0.36-2.49-1.05
			c-0.16-1.26,0.19-2.65,0.55-3.85c0.79-2.63,2.37-4.94,4.26-6.9c4.26-4.42,9.86-7.35,15.33-9.99c7.84-3.78,15.69-7.53,23.54-11.3
			c1.95-0.94,3.9-1.87,5.84-2.81c1.22-0.58,1.54-2.32,0.9-3.42C306.63,351.37,305.16,351.13,303.94,351.72L303.94,351.72z"/>
	</g>
</g>
<g>
	<g>
		<path d="M258.58,396.37c-1.17,0.62-2.35,1.25-3.52,1.87c-1.42,0.76-1.62,2.83-0.51,3.93c5.32,5.24,13.18,5.12,20.14,5.22
			c8.9,0.14,17.8,0.27,26.71,0.41c8.82,0.13,17.64,0.27,26.46,0.4c4.49,0.07,8.99,0.14,13.48,0.21c4.15,0.06,8.34,0.31,12.49,0.12
			c4.07-0.19,8.27-1.26,10.75-4.74c2.21-3.1,2.44-7.42-0.26-10.29c-2.21-2.35-5.74,1.19-3.54,3.54c0.54,0.57,0.64,1.27,0.48,2.08
			c-0.2,1.03-0.78,2.07-1.58,2.73c-2.31,1.91-5.92,1.74-8.71,1.71c-7.95-0.09-15.91-0.24-23.86-0.36
			c-16.14-0.25-32.28-0.49-48.42-0.74c-3.94-0.06-7.93,0.04-11.85-0.36c-3.17-0.32-6.42-1.18-8.74-3.46
			c-0.17,1.31-0.34,2.62-0.51,3.93c1.17-0.62,2.35-1.25,3.52-1.87C263.95,399.18,261.43,394.86,258.58,396.37L258.58,396.37z"/>
	</g>
</g>
<g>
	<g>
		<path d="M226.92,514c2.42-9.18,4.02-18.56,4.74-28.02c0.12-1.6-2.38-1.6-2.5,0c-0.7,9.25-2.28,18.39-4.65,27.36
			C224.1,514.9,226.51,515.56,226.92,514L226.92,514z"/>
	</g>
</g>
<g>
	<g>
		<path d="M235.46,524.09c3.69-3.13,6.27-7.2,7.72-11.81c1.37-4.35,1.76-8.94,2.08-13.47c0.12-1.61-2.39-1.6-2.5,0
			c-0.3,4.2-0.67,8.42-1.89,12.46c-1.31,4.35-3.71,8.1-7.18,11.04C232.47,523.36,234.24,525.12,235.46,524.09L235.46,524.09z"/>
	</g>
</g>
<g>
	<g>
		<path d="M252.6,512.66c0.48-8.89,0.97-17.79,1.45-26.68c0.09-1.61-2.41-1.6-2.5,0c-0.48,8.89-0.97,17.79-1.45,26.68
			C250.01,514.27,252.51,514.26,252.6,512.66L252.6,512.66z"/>
	</g>
</g>
<g>
	<g>
		<path d="M386.8,503.91c0.34-8.19,0.28-16.39-0.19-24.58c-0.09-1.6-2.59-1.61-2.5,0c0.47,8.19,0.53,16.39,0.19,24.58
			C384.23,505.52,386.73,505.52,386.8,503.91L386.8,503.91z"/>
	</g>
</g>
<g>
	<g>
		<path d="M395.09,516.01c3.64-10.24,0.55-20.55-2.93-30.35c-0.53-1.51-2.95-0.86-2.41,0.66c3.33,9.39,6.41,19.2,2.93,29.02
			C392.14,516.86,394.55,517.51,395.09,516.01L395.09,516.01z"/>
	</g>
</g>
<g>
	<g>
		<path d="M405.36,516.42c0.87-8.31,1.2-16.66,1-25.01c-0.04-1.61-2.54-1.61-2.5,0c0.2,8.35-0.13,16.7-1,25.01
			C402.69,518.02,405.19,518,405.36,516.42L405.36,516.42z"/>
	</g>
</g>
<g>
	<g>
		<path class="st3" d="M310.84,369.42c-6.12,0.9-12.29,1.41-18.47,1.57c-3.21,0.09-3.23,5,0,5c5.51-0.01,11.03-0.01,16.54-0.02
			c3.22,0,3.22-4.99,0-5c-1.86,0-3.55,0.44-5.22,1.24c-2.29,1.1-1.11,4.68,1.26,4.66c2.73-0.03,5.46-0.06,8.18-0.08
			c-0.22-1.64-0.44-3.27-0.66-4.91c-3.14,0.54-6.28,1.07-9.42,1.61c0.44,1.61,0.89,3.21,1.33,4.82c4.09-0.94,8.02-2.34,11.82-4.12
			c1.58-0.74,1.44-2.81,0.51-3.93c-1.27-1.52-1.36-3.56-0.7-5.34c0.64-1.74-1.35-3.69-3.08-3.08c-2.06,0.73-4.11,1.47-6.17,2.2
			c0.64,1.52,1.28,3.05,1.93,4.57c2.65-1.49,5.54-1.95,8.54-1.55c0-1.67,0-3.33,0-5c-3.05,0.13-6.09,0.27-9.14,0.4
			c0.42,1.55,0.84,3.11,1.26,4.66c1.86-0.99,3.73-1.98,5.59-2.96c2.29-1.21,1.1-4.57-1.26-4.66c-2.06-0.08-4.11-0.16-6.17-0.24
			c0.22,1.64,0.44,3.27,0.66,4.91c3.05-0.43,6.1-0.86,9.16-1.29c1.5-0.21,2.39-2.48,1.49-3.67c-1.55-2.06-2.55-4.28-3.04-6.82
			c-0.21-1.07-1.38-1.84-2.41-1.84c-1.17,0-2.01,0.8-2.41,1.84c-1.24,3.22-1.45,6.61-0.92,10c0.12,0.76,0.98,1.63,1.75,1.75
			c3.13,0.49,6.22,0.36,9.25-0.6c1.38-0.44,1.98-1.7,1.75-3.08c-0.47-2.75-0.63-5.54-0.55-8.33c0.03-1.06-0.79-2.16-1.84-2.41
			c-2.88-0.68-5.63-0.34-8.32,0.87c-2.32,1.05-1.09,4.7,1.26,4.66c2.68-0.05,5.35-0.1,8.03-0.15c-0.8-0.61-1.61-1.22-2.41-1.84
			c0.2,0.96,0.07,1.83-0.22,2.76c1.22-0.5,2.45-1,3.67-1.49c-3.1-2.35-7.83-0.34-8.83,3.22c-0.34,1.22,0.42,2.83,1.75,3.08
			c2.52,0.48,5-0.47,6.28-2.77c0.87-1.56-0.2-3.9-2.16-3.76c-3.8,0.26-7.59,0.53-11.39,0.79c-1.61,0.11-2.85,1.51-2.41,3.16
			c0.09,0.35-0.08,0.51-0.51,0.6c0.81,1.39,1.62,2.79,2.43,4.18c0.94-1.05,1.87-2.09,2.81-3.14c0.83-0.92,1-2.28,0.2-3.28
			c-0.7-0.88-2.22-1.41-3.23-0.64c-2.43,1.85-5.09,3.29-8.01,4.21c0.81,1.39,1.62,2.79,2.43,4.18c0.96-0.79,2.07-1.22,3.27-1.48
			c-0.81-1.39-1.62-2.79-2.43-4.18c-3.26,2.58-6.87,4.71-10.65,6.45c0.84,1.44,1.68,2.88,2.52,4.32c3.95-2.28,8.19-3.8,12.68-4.64
			c-0.64-1.52-1.28-3.05-1.93-4.57c-4.5,2.8-9.38,4.69-14.59,5.68c0.64,1.52,1.28,3.05,1.93,4.57c3.86-2.29,7.72-4.59,11.58-6.88
			c2.76-1.64,0.27-5.93-2.52-4.32c-4.58,2.64-9.16,5.28-13.74,7.91c-2.11,1.21-1.24,4.74,1.26,4.66c1.62-0.05,3.25-0.1,4.87-0.16
			c-0.42-1.55-0.84-3.11-1.26-4.66c-5.19,3.42-10.84,5.86-16.89,7.29c0.64,1.52,1.28,3.05,1.93,4.57c4.09-2.63,8.73-3.94,13.59-3.81
			c-0.22-1.64-0.44-3.27-0.66-4.91c-3.94,1.64-8.04,2.83-12.24,3.56c0.64,1.52,1.28,3.05,1.93,4.57c6.86-3.75,14.06-6.79,21.53-9.09
			c-0.64-1.52-1.28-3.05-1.93-4.57c-7.58,4.12-15.63,7.2-24.01,9.24c0.44,1.61,0.89,3.21,1.33,4.82c2.84-1.09,5.69-2.18,8.53-3.28
			c-0.64-1.52-1.28-3.05-1.93-4.57c-5.01,2.7-10.51,4.5-16.17,5.18c0.42,1.55,0.84,3.11,1.26,4.66c2.56-1.14,5.13-2.28,7.69-3.41
			c-1.01-1.31-2.02-2.62-3.03-3.93c-1.16,1.18-2.5,2.1-4.07,2.66c-1.27,0.45-2.12,1.71-1.75,3.08c0.34,1.24,1.79,2.19,3.08,1.75
			c3.68-1.28,7.36-2.57,11.04-3.85c-0.64-1.52-1.28-3.05-1.93-4.57c-5.68,2.63-10.8,6.46-14.94,11.15
			c-1.89,2.14,0.46,5.23,3.03,3.93c1.63-0.83,3.26-1.65,4.89-2.48c2.48-1.26,0.72-5.65-1.93-4.57c-3.01,1.23-6.11,2.2-9.29,2.91
			c0.94,1.22,1.88,2.45,2.82,3.67c0.6-1.06,1.39-1.68,2.5-2.16c-0.84-1.44-1.68-2.88-2.52-4.32c-1,0.67-2.01,1.35-3.01,2.02
			c0.84,1.44,1.68,2.88,2.52,4.32c1.3-0.87,2.6-1.74,3.9-2.62c-1.14-1.14-2.28-2.28-3.42-3.42c-1.27,1.7-3.13,3-5.12,3.7
			c-2.1,0.74-2.64,4.36,0,4.82c4.92,0.86,9.88,1.15,14.87,0.74c3.17-0.26,3.26-4.93,0-5c-1.12-0.03-2.24-0.05-3.35-0.08
			c0.22,1.64,0.44,3.27,0.66,4.91c5.36-1.64,10.85-2.67,16.45-3c-0.42-1.55-0.84-3.11-1.26-4.66c-1.78,1.09-3.62,1.8-5.67,2.22
			c-1.32,0.27-2.09,1.84-1.75,3.08c0.38,1.39,1.74,2,3.08,1.75c6.15-1.17,12.35-1.91,18.6-2.24c-0.22-1.64-0.44-3.27-0.66-4.91
			c-2.58,0.41-5.16,0.82-7.74,1.23c-2.61,0.42-5.32,0.67-7.9,1.27c-1.22,0.28-2.29,0.94-2.83,2.1c-0.58,1.23-0.26,2.68,0.81,3.53
			c1.97,1.57,5.85-0.12,4.71-2.9c-0.38-0.92-1.26-1.99-2.41-1.84c-4.42,0.57-8.86,0.6-13.28,0.08c0,1.67,0,3.33,0,5
			c12.32-0.58,24.66-0.73,36.99-0.46c3.22,0.07,3.22-4.91,0-5c-2.18-0.06-4.36-0.12-6.54-0.17c0.22,1.64,0.44,3.27,0.66,4.91
			c8.61-1.28,17.36-1.61,26.05-1.11c0-1.67,0-3.33,0-5c-11.06,0.6-22.14,0.77-33.22,0.5c0,1.67,0,3.33,0,5
			c12.13-0.41,24.28-0.4,36.41,0.01c0-1.67,0-3.33,0-5c-4.78,0.01-9.55,0.03-14.33,0.04c0,1.67,0,3.33,0,5
			c10.02-0.29,20.04-0.58,30.06-0.88c3.21-0.09,3.23-5.01,0-5c-4.2,0.02-8.4,0.03-12.6,0.05c0.22,1.64,0.44,3.27,0.66,4.91
			c5.22-0.88,10.53-1.03,15.8-0.57c0-1.67,0-3.33,0-5c-1.99,0.25-3.97,0.5-5.96,0.75c0.22,1.64,0.44,3.27,0.66,4.91
			c2.6-0.46,5.19-0.16,7.67,0.7c0.22-1.64,0.44-3.27,0.66-4.91c-4.41,0-8.82,0.01-13.23,0.01c0,1.67,0,3.33,0,5
			c6.08-0.27,12.19-0.02,18.22,0.84c0-1.61,0-3.21,0-4.82c-2.83,0.72-5.68,0.91-8.59,0.62c0,1.67,0,3.33,0,5
			c2.84-0.08,5.67-0.17,8.51-0.25c1.35-0.04,2.5-1.12,2.5-2.5c0-1.5-1.16-2.32-2.5-2.5c-16.64-2.2-33.42-3.2-50.2-2.99
			c0.22,1.64,0.44,3.27,0.66,4.91c11.28-2.48,22.93-1.61,34.35-0.77c1.35,0.1,2.5-1.22,2.5-2.5c0-1.48-1.15-2.35-2.5-2.5
			c-9.67-1.09-19.34-2.18-29.02-3.27c0,1.67,0,3.33,0,5c13.27-0.41,26.55-0.01,39.77,1.22c0-1.67,0-3.33,0-5
			c-14.15-0.61-28.25-2.1-42.22-4.5c-0.22,1.64-0.44,3.27-0.66,4.91c6.48-0.03,12.97-0.06,19.45-0.09c3.22-0.02,3.22-4.97,0-5
			c-3.68-0.04-7.26-0.61-10.78-1.71c0,1.61,0,3.21,0,4.82c4.72-1.24,9.51-1.73,14.38-1.51c1.35,0.06,2.5-1.19,2.5-2.5
			c0-1.44-1.15-2.4-2.5-2.5c-2.43-0.18-5.22-0.32-7.28-1.78c-1.27-0.9-2.37-2.8-1.57-4.25c-1.31,0.17-2.62,0.34-3.93,0.51
			c3.84,3.14,7.68,6.29,11.52,9.43c2.5,2.05,5.59-1.03,3.54-3.54c-3.68-4.49-7.65-8.74-11.88-12.72c-1.18,1.18-2.36,2.36-3.54,3.54
			c3.27,2.98,6.54,5.96,9.81,8.94c1.01-1.31,2.02-2.62,3.03-3.93c-5.21-3.06-9.88-6.85-13.96-11.3c-1.18,1.18-2.36,2.36-3.54,3.54
			c4.74,4.67,9.53,9.28,14.38,13.83c1.92,1.8,4.6-0.03,4.18-2.43c-0.78-4.45-4.66-7.54-9.01-8.01c-2.62-0.28-3.18,3.44-1.26,4.66
			c5.42,3.43,10.61,7.18,15.54,11.28c0.93,0.77,1.94,0.91,3.03,0.39c1.39-0.66,3.05-0.59,4.41,0.1c0.42-1.55,0.84-3.11,1.26-4.66
			c-3.13-0.35-6.27-0.69-9.4-1.04c-2.88-0.32-3.27,4.14-0.66,4.91c1.62,0.48,3.25,0.96,4.87,1.44c0.22-1.64,0.44-3.27,0.66-4.91
			c-10.76,0.17-21.52-0.05-32.26-0.67c0.22,1.64,0.44,3.27,0.66,4.91c3.39-0.5,6.88-0.32,10.22,0.41c0.22-1.64,0.44-3.27,0.66-4.91
			c-11.63,0.73-23.29,0.61-34.9-0.35c0,1.67,0,3.33,0,5c12.17-1.24,24.49-0.98,36.58,0.91c0.22-1.64,0.44-3.27,0.66-4.91
			c-5.29,0.67-10.58,1.33-15.86,2c-1.23,0.16-2.3,0.83-2.46,2.17c-0.14,1.21,0.57,2.42,1.79,2.74c3.88,1.03,7.75,2.06,11.63,3.09
			c0-1.61,0-3.21,0-4.82c-7.07,1.14-14.29,1.23-21.4,0.42c0.22,1.64,0.44,3.27,0.66,4.91c3.65-0.5,7.4-0.32,10.99,0.45
			c0.22-1.64,0.44-3.27,0.66-4.91c-6.91,0.31-13.85-0.02-20.69-1.08c-0.22,1.64-0.44,3.27-0.66,4.91
			c5.03,0.04,10.06,0.08,15.08,0.11c0-1.67,0-3.33,0-5c-5.11,0.59-10.24,0.34-15.25-0.84c-0.22,1.64-0.44,3.27-0.66,4.91
			c3.56,0.03,7.13,0.05,10.69,0.08c0-1.67,0-3.33,0-5c-7.22,0.37-14.48,0.07-21.64-1c0,1.61,0,3.21,0,4.82
			c3.93-1.04,7.96-0.96,11.86,0.18c0-1.61,0-3.21,0-4.82c-4.83,0.88-9.76,1.02-14.64,0.54c-1.35-0.13-2.5,1.24-2.5,2.5
			c0,1.47,1.15,2.36,2.5,2.5c7.49,0.78,14.97,1.56,22.46,2.34c0-1.67,0-3.33,0-5c-9.07,0.68-18.12-0.2-26.87-2.66
			c-0.22,1.64-0.44,3.27-0.66,4.91c11.87-0.11,23.74,0.72,35.47,2.55c0.22-1.64,0.44-3.27,0.66-4.91
			c-7.91,0.31-15.83-0.04-23.68-1.05c0,1.67,0,3.33,0,5c9.02,0.63,18.04,1.26,27.06,1.89c1.35,0.09,2.5-1.22,2.5-2.5
			c0-1.49-1.15-2.33-2.5-2.5c-7.46-0.93-14.81-2.67-21.93-5.07c0,1.61,0,3.21,0,4.82c5.49-0.84,11.09-0.85,16.59-0.19
			c0-1.67,0-3.33,0-5c-10.43,0.15-20.81-0.98-30.96-3.4c0.2,1.52,0.4,3.05,0.6,4.57c4.99-2.26,10.43-3.32,15.9-3.25
			c1.35,0.02,2.5-1.16,2.5-2.5c0-1.45-1.15-2.38-2.5-2.5c-5.45-0.5-10.95-0.04-16.26,1.28c-2.79,0.69-2.11,4.83,0.66,4.91
			c12,0.36,24.05-1.85,35.12-6.51c-1.03-0.58-2.05-1.16-3.08-1.75c0.77,3,2.48,5.74,4.92,7.66c1.26,0.99,3.02,1,3.93-0.51
			c0.04-0.06,0.87-1.3,0.91-1.24c-0.11-0.17-0.76,0.12-0.87-0.48c1.61-0.44,3.21-0.89,4.82-1.33c-0.54-2.5-2.06-4.53-4.15-5.96
			c-0.72-0.5-1.79-0.43-2.52,0c-3.83,2.23,0.29,7.77,3.78,5.64c1.87-1.14,2.06-3.66,1.09-5.45c-0.39-0.71-0.92-1.33-1.53-1.86
			c-0.32-0.28-1.21-0.78-1.36-1.2c-0.36-1.05-1.26-1.84-2.41-1.84c-1.01,0-2.24,0.77-2.41,1.84c-0.75,4.76,1.81,9.25,6.39,10.89
			c1.73,0.62,3.71-1.34,3.08-3.08c-1.19-3.25-3.49-6-6.62-7.57c-2.79-1.4-7.71-2.68-10.2-0.07c-0.71,0.74-1.03,1.71-1.15,2.71
			c-0.02,0.19-0.01,1.02-0.1,1.14c-0.3,0.4-1.35,0.47-1.8,0.56c-1.11,0.21-2.23,0.4-3.34,0.59c-4.31,0.77-8.63,1.53-12.94,2.3
			c-4.88,0.87-9.77,1.73-14.65,2.6c0.81,1.39,1.62,2.79,2.43,4.18c3.41-4.1,8.27-6.15,13.27-7.69c5.46-1.69,11.07-2.9,16.3-5.28
			c2.93-1.33,5.66-3.11,7.94-5.4c-1.42-0.59-2.85-1.18-4.27-1.77c0.03,2.19,0.93,4.33,2.68,5.69c1.07,0.83,2.5,1.04,3.54,0
			c0.86-0.86,1.07-2.7,0-3.54c-0.75-0.58-1.21-1.19-1.22-2.16c-0.03-2.15-2.72-3.32-4.27-1.77c-3.79,3.8-8.92,5.6-13.96,7.08
			c-5.43,1.59-11.03,2.85-16.1,5.46c-2.82,1.45-5.42,3.39-7.45,5.83c-1.63,1.96-0.08,4.63,2.43,4.18
			c10.09-1.79,20.19-3.56,30.28-5.38c1.98-0.36,4.07-0.93,5.25-2.7c0.3-0.45,0.53-0.96,0.67-1.49c0.05-0.19,0.39-1.6,0.22-1.74
			c0-0.04-0.01-0.07-0.04-0.09c-0.59,0.35-0.63,0.44-0.14,0.27c0.32,0.07,0.75-0.02,1.08,0c3.15,0.19,6.23,2.4,7.32,5.38
			c1.03-1.03,2.05-2.05,3.08-3.08c-1.79-0.64-3.19-2.81-2.89-4.74c-1.61,0-3.21,0-4.82,0c0.45,1.29,1.19,2.22,2.23,3.07
			c0.34,0.28,0.68,0.55,0.99,0.87c0.06,0.1,0.12,0.21,0.18,0.31c-0.03-0.1-0.05-0.19-0.08-0.29c0.91-1.32,1.72-1.69,2.43-1.09
			c0.49,0.36,0.65,0.93,0.48,1.71c-0.21,0.37-0.43,0.74-0.64,1.1c-0.07,0.05-0.15,0.11-0.22,0.16c-0.84,0-1.68,0-2.52,0
			c1.04,0.71,1.59,1.77,1.85,2.97c0.29,1.32,1.82,2.09,3.08,1.75c1.41-0.39,1.98-1.74,1.75-3.08c-0.37-2.13-2.62-3.33-4.64-3.11
			c-2.15,0.23-3.5,1.9-4.54,3.63c1.31-0.17,2.62-0.34,3.93-0.51c-1.82-1.43-3.05-3.21-3.63-5.46c-0.3-1.19-1.84-2.27-3.08-1.75
			c-10.7,4.5-22.18,6.68-33.79,6.34c0.22,1.64,0.44,3.27,0.66,4.91c4.9-1.22,9.9-1.56,14.93-1.11c0-1.67,0-3.33,0-5
			c-6.39-0.07-12.61,1.31-18.42,3.93c-1.98,0.9-1.38,4.1,0.6,4.57c10.56,2.53,21.43,3.74,32.29,3.58c1.35-0.02,2.5-1.13,2.5-2.5
			c0-1.49-1.15-2.34-2.5-2.5c-5.99-0.72-11.97-0.55-17.92,0.37c-1.07,0.16-1.84,1.41-1.84,2.41c0,1.14,0.79,2.06,1.84,2.41
			c7.56,2.55,15.34,4.27,23.26,5.25c0-1.67,0-3.33,0-5c-9.02-0.63-18.04-1.26-27.06-1.89c-1.35-0.09-2.5,1.22-2.5,2.5
			c0,1.49,1.15,2.33,2.5,2.5c7.85,1.01,15.77,1.36,23.68,1.05c1.24-0.05,2.31-0.91,2.46-2.17c0.13-1.12-0.55-2.55-1.79-2.74
			c-12.17-1.91-24.47-2.85-36.8-2.73c-2.81,0.03-3.4,4.14-0.66,4.91c9.15,2.57,18.73,3.55,28.2,2.84c3.25-0.24,3.18-4.67,0-5
			c-7.49-0.78-14.97-1.56-22.46-2.34c0,1.67,0,3.33,0,5c5.34,0.52,10.69,0.24,15.97-0.72c2.54-0.46,2.22-4.17,0-4.82
			c-4.74-1.39-9.74-1.44-14.52-0.18c-2.23,0.59-2.53,4.44,0,4.82c7.61,1.14,15.28,1.57,22.96,1.18c3.2-0.16,3.24-4.98,0-5
			c-3.56-0.03-7.13-0.05-10.69-0.08c-2.78-0.02-3.45,4.25-0.66,4.91c5.43,1.28,11.03,1.66,16.58,1.02c1.34-0.15,2.5-1.04,2.5-2.5
			c0-1.36-1.14-2.49-2.5-2.5c-5.03-0.04-10.06-0.08-15.08-0.11c-1.23-0.01-2.31,0.96-2.46,2.17c-0.13,1.11,0.55,2.55,1.79,2.74
			c7.29,1.13,14.64,1.58,22.02,1.25c2.69-0.12,3.54-4.29,0.66-4.91c-4.54-0.97-9.06-1.09-13.65-0.45c-1.21,0.17-1.95,1.66-1.79,2.74
			c0.2,1.32,1.18,2.02,2.46,2.17c7.59,0.87,15.19,0.61,22.73-0.6c2.52-0.41,2.24-4.23,0-4.82c-3.88-1.03-7.75-2.06-11.63-3.09
			c-0.22,1.64-0.44,3.27-0.66,4.91c5.29-0.67,10.58-1.33,15.86-2c1.23-0.16,2.3-0.83,2.46-2.17c0.13-1.12-0.55-2.55-1.79-2.74
			c-12.55-1.97-25.27-2.38-37.91-1.09c-3.19,0.32-3.24,4.73,0,5c11.61,0.96,23.27,1.08,34.9,0.35c2.67-0.17,3.57-4.27,0.66-4.91
			c-4.28-0.94-8.55-1.05-12.87-0.41c-1.21,0.18-1.96,1.65-1.79,2.74c0.19,1.27,1.18,2.1,2.46,2.17c10.74,0.61,21.5,0.84,32.26,0.67
			c2.82-0.04,3.39-4.1,0.66-4.91c-1.62-0.48-3.25-0.96-4.87-1.44c-0.22,1.64-0.44,3.27-0.66,4.91c3.13,0.35,6.27,0.69,9.4,1.04
			c2.48,0.27,3.38-3.57,1.26-4.66c-3.05-1.56-6.37-1.57-9.45-0.1c1.01,0.13,2.02,0.26,3.03,0.39c-5.25-4.37-10.77-8.41-16.55-12.06
			c-0.42,1.55-0.84,3.11-1.26,4.66c2.25,0.24,3.82,2.24,4.19,4.34c1.39-0.81,2.79-1.62,4.18-2.43c-4.85-4.55-9.64-9.17-14.38-13.83
			c-2.3-2.27-5.7,1.17-3.54,3.54c4.35,4.75,9.42,8.83,14.97,12.09c2.4,1.41,5.17-1.98,3.03-3.93c-3.27-2.98-6.54-5.96-9.81-8.94
			c-2.37-2.16-5.89,1.32-3.54,3.54c4.23,3.98,8.2,8.22,11.88,12.72c1.18-1.18,2.36-2.36,3.54-3.54c-3.84-3.14-7.68-6.29-11.52-9.43
			c-1.2-0.98-3.09-1.02-3.93,0.51c-1.84,3.36-0.73,7.54,2.04,10.06c3.03,2.75,7.21,3.2,11.12,3.49c0-1.67,0-3.33,0-5
			c-5.29-0.24-10.59,0.35-15.71,1.69c-2.45,0.64-2.3,4.11,0,4.82c3.92,1.22,8,1.84,12.11,1.88c0-1.67,0-3.33,0-5
			c-6.48,0.03-12.97,0.06-19.45,0.09c-2.72,0.01-3.52,4.42-0.66,4.91c14.4,2.47,28.95,4.05,43.55,4.68c1.35,0.06,2.5-1.19,2.5-2.5
			c0-1.46-1.15-2.38-2.5-2.5c-13.22-1.22-26.5-1.63-39.77-1.22c-1.35,0.04-2.5,1.12-2.5,2.5c0,1.48,1.15,2.35,2.5,2.5
			c9.67,1.09,19.34,2.18,29.02,3.27c0-1.67,0-3.33,0-5c-11.9-0.87-23.92-1.63-35.68,0.95c-2.77,0.61-2.13,4.95,0.66,4.91
			c16.78-0.21,33.56,0.78,50.2,2.99c0-1.67,0-3.33,0-5c-2.84,0.08-5.67,0.17-8.51,0.25c-3.27,0.1-3.16,4.7,0,5
			c3.33,0.32,6.68,0.02,9.92-0.8c2.23-0.57,2.53-4.46,0-4.82c-6.48-0.93-13-1.31-19.55-1.02c-3.2,0.14-3.24,5,0,5
			c4.41,0,8.82-0.01,13.23-0.01c2.91,0,3.28-4.01,0.66-4.91c-3.35-1.15-6.85-1.32-10.32-0.7c-2.74,0.49-2.14,5.26,0.66,4.91
			c1.99-0.25,3.97-0.5,5.96-0.75c3.16-0.4,3.27-4.72,0-5c-5.73-0.5-11.46-0.2-17.13,0.75c-2.82,0.48-2.09,4.92,0.66,4.91
			c4.2-0.02,8.4-0.03,12.6-0.05c0-1.67,0-3.33,0-5c-10.02,0.29-20.04,0.58-30.06,0.88c-3.21,0.09-3.23,5.01,0,5
			c4.78-0.01,9.55-0.03,14.33-0.04c3.23-0.01,3.21-4.89,0-5c-12.13-0.41-24.28-0.41-36.41-0.01c-3.21,0.11-3.23,4.92,0,5
			c11.08,0.27,22.16,0.1,33.22-0.5c3.22-0.17,3.22-4.81,0-5c-9.16-0.53-18.31-0.06-27.38,1.29c-1.21,0.18-1.96,1.65-1.79,2.74
			c0.19,1.24,1.18,2.13,2.46,2.17c2.18,0.06,4.36,0.12,6.54,0.17c0-1.67,0-3.33,0-5c-12.33-0.27-24.67-0.12-36.99,0.46
			c-1.35,0.06-2.5,1.1-2.5,2.5c0,1.48,1.15,2.34,2.5,2.5c4.42,0.52,8.87,0.5,13.28-0.08c-0.8-0.61-1.61-1.22-2.41-1.84
			c0.02,0.05,0.04,0.1,0.06,0.15c0-0.44,0-0.89,0-1.33c-0.01,0.04-0.03,0.08-0.04,0.12c0.38-0.5,0.77-1,1.15-1.49
			c0.57,0,1.14,0,1.72,0c0.3,0.3,0.6,0.6,0.9,0.9c-0.03-0.04-0.07-0.09-0.1-0.13c0.11,0.42,0.23,0.84,0.34,1.26
			c-0.01,0.07-0.01,0.13-0.02,0.2c-0.21,0.37-0.43,0.74-0.64,1.1c-0.05,0.06,0.76-0.12,1-0.16c0.64-0.1,1.29-0.21,1.93-0.31
			c1.45-0.23,2.9-0.46,4.35-0.69c2.82-0.45,5.64-0.9,8.46-1.35c2.78-0.44,2.13-5.05-0.66-4.91c-6.69,0.34-13.35,1.16-19.92,2.41
			c0.44,1.61,0.89,3.21,1.33,4.82c2.43-0.5,4.75-1.43,6.86-2.73c2.01-1.23,1.31-4.81-1.26-4.66c-6.03,0.36-12,1.4-17.78,3.18
			c-2.69,0.83-2.19,4.85,0.66,4.91c1.12,0.03,2.24,0.05,3.35,0.08c0-1.67,0-3.33,0-5c-4.52,0.37-9.07,0.23-13.54-0.56
			c0,1.61,0,3.21,0,4.82c3.33-1.17,6-3.18,8.11-6c1.51-2.01-1.42-4.76-3.42-3.42c-1.3,0.87-2.6,1.74-3.9,2.62
			c-2.66,1.78-0.16,6.12,2.52,4.32c1-0.67,2.01-1.35,3.01-2.02c1.12-0.75,1.61-2.2,0.9-3.42c-0.75-1.28-2.17-1.43-3.42-0.9
			c-1.84,0.79-3.33,2.22-4.3,3.96c-1.1,1.96,0.71,4.14,2.82,3.67c3.18-0.71,6.28-1.68,9.29-2.91c-0.64-1.52-1.28-3.05-1.93-4.57
			c-1.63,0.83-3.26,1.65-4.89,2.48c1.01,1.31,2.02,2.62,3.03,3.93c3.9-4.42,8.59-7.9,13.93-10.37c2.55-1.18,0.75-5.5-1.93-4.57
			c-3.68,1.28-7.36,2.57-11.04,3.85c0.44,1.61,0.89,3.21,1.33,4.82c2.38-0.85,4.5-2.13,6.27-3.95c0.86-0.88,0.97-2.31,0.2-3.28
			c-0.83-1.04-2.05-1.16-3.23-0.64c-2.56,1.14-5.13,2.28-7.69,3.41c-2.21,0.98-1.16,4.95,1.26,4.66c6.58-0.78,12.85-2.71,18.69-5.86
			c2.44-1.31,0.76-5.6-1.93-4.57c-2.84,1.09-5.69,2.18-8.53,3.28c-2.95,1.13-1.86,5.6,1.33,4.82c8.78-2.13,17.26-5.43,25.2-9.75
			c2.47-1.34,0.8-5.41-1.93-4.57c-7.87,2.43-15.5,5.64-22.73,9.59c-1.08,0.59-1.51,2.02-1.02,3.12c0.53,1.21,1.69,1.67,2.95,1.45
			c4.21-0.73,8.3-1.92,12.24-3.56c1.15-0.48,1.99-1.41,1.79-2.74c-0.19-1.24-1.18-2.13-2.46-2.17c-5.68-0.16-11.34,1.41-16.11,4.49
			c-2.38,1.53-0.87,5.23,1.93,4.57c6.42-1.52,12.57-4.16,18.08-7.79c1.97-1.3,1.35-4.74-1.26-4.66c-1.62,0.05-3.25,0.1-4.87,0.16
			c0.42,1.55,0.84,3.11,1.26,4.66c4.58-2.64,9.16-5.28,13.74-7.91c-0.84-1.44-1.68-2.88-2.52-4.32c-3.86,2.29-7.72,4.59-11.58,6.88
			c-2.53,1.51-0.79,5.08,1.93,4.57c5.59-1.06,10.96-3.17,15.78-6.18c2.49-1.55,0.81-5.08-1.93-4.57c-4.88,0.91-9.57,2.67-13.87,5.14
			c-1.17,0.67-1.58,2.26-0.9,3.42c0.74,1.26,2.19,1.46,3.42,0.9c4.19-1.93,8.05-4.37,11.66-7.23c0.85-0.68,0.9-2.15,0.39-3.03
			c-0.58-0.99-1.73-1.38-2.82-1.15c-2.07,0.45-3.86,1.42-5.48,2.77c-1.95,1.61,0.14,4.9,2.43,4.18c3.32-1.05,6.43-2.6,9.2-4.71
			c-1.01-1.31-2.02-2.62-3.03-3.93c-0.94,1.05-1.87,2.09-2.81,3.14c-1.69,1.89-0.04,4.7,2.43,4.18c3.01-0.64,4.78-3.85,4-6.76
			c-0.8,1.05-1.61,2.11-2.41,3.16c3.8-0.26,7.59-0.53,11.39-0.79c-0.72-1.25-1.44-2.51-2.16-3.76c-0.13,0.24-0.29,0.53-0.64,0.47
			c0.58,1.03,1.16,2.05,1.75,3.08c0.08-0.27,0.08-0.33,0.52-0.48c0.15-0.05,0.48-0.05,0.32-0.09c0.31,0.08,0.25,0.04,0.64,0.34
			c1.36,1.03,3.23-0.12,3.67-1.49c0.57-1.78,0.6-3.59,0.22-5.41c-0.22-1.05-1.37-1.86-2.41-1.84c-2.68,0.05-5.35,0.1-8.03,0.15
			c0.42,1.55,0.84,3.11,1.26,4.66c1.41-0.64,2.98-0.72,4.46-0.37c-0.61-0.8-1.22-1.61-1.84-2.41c-0.09,3.25,0.18,6.46,0.73,9.66
			c0.58-1.03,1.16-2.05,1.75-3.08c-2.14,0.68-4.37,0.95-6.59,0.6c0.58,0.58,1.16,1.16,1.75,1.75c-0.4-2.5,0.02-5,0.92-7.34
			c-1.61,0-3.21,0-4.82,0c0.56,2.9,1.77,5.66,3.55,8.01c0.5-1.22,1-2.45,1.49-3.67c-3.05,0.43-6.1,0.86-9.16,1.29
			c-1.21,0.17-1.95,1.65-1.79,2.74c0.19,1.25,1.18,2.12,2.46,2.17c2.06,0.08,4.11,0.16,6.17,0.24c-0.42-1.55-0.84-3.11-1.26-4.66
			c-1.86,0.99-3.73,1.98-5.59,2.96c-2.17,1.15-1.2,4.77,1.26,4.66c3.05-0.13,6.09-0.27,9.14-0.4c1.35-0.06,2.5-1.11,2.5-2.5
			c0-1.5-1.16-2.32-2.5-2.5c-3.83-0.51-7.71,0.35-11.06,2.23c-2.41,1.36-0.8,5.54,1.93,4.57c2.06-0.73,4.11-1.47,6.17-2.2
			c-1.03-1.03-2.05-2.05-3.08-3.08c-1.31,3.54-0.39,7.37,1.98,10.21c0.17-1.31,0.34-2.62,0.51-3.93c-3.4,1.59-6.97,2.77-10.63,3.61
			c-1.32,0.3-2.09,1.81-1.75,3.08c0.39,1.41,1.74,1.97,3.08,1.75c3.14-0.54,6.28-1.07,9.42-1.61c2.81-0.48,2.1-4.94-0.66-4.91
			c-2.73,0.03-5.46,0.06-8.18,0.08c0.42,1.55,0.84,3.11,1.26,4.66c0.86-0.41,1.75-0.56,2.7-0.56c0-1.67,0-3.33,0-5
			c-5.51,0.01-11.03,0.01-16.54,0.02c0,1.67,0,3.33,0,5c6.63-0.18,13.24-0.78,19.8-1.75c1.34-0.2,2.07-1.89,1.75-3.08
			C313.52,369.74,312.18,369.22,310.84,369.42L310.84,369.42z"/>
	</g>
</g>
<g>
	<g>
		<path class="st3" d="M266.52,400.28c18.76,0.62,37.52,1.25,56.27,1.88c0-1.67,0-3.33,0-5c-15.85,1.21-31.77,1.47-47.65,0.78
			c0,1.67,0,3.33,0,5c19.31-0.8,38.61-1.6,57.92-2.4c0-1.67,0-3.33,0-5c-3.96,0.51-7.95,0.67-11.94,0.48c0,1.67,0,3.33,0,5
			c12.23-0.31,24.47-0.61,36.7-0.92c0-1.67,0-3.33,0-5c-9.15,0.94-18.29,1.89-27.44,2.83c-1.34,0.14-2.5,1.05-2.5,2.5
			c0,1.37,1.14,2.49,2.5,2.5c9.26,0.1,18.52,0.2,27.78,0.3c3.22,0.03,3.22-4.97,0-5c-9.26-0.1-18.52-0.2-27.78-0.3
			c0,1.67,0,3.33,0,5c9.15-0.94,18.29-1.89,27.44-2.83c1.34-0.14,2.5-1.05,2.5-2.5c0-1.33-1.14-2.53-2.5-2.5
			c-12.23,0.31-24.47,0.61-36.7,0.92c-3.23,0.08-3.21,4.84,0,5c3.99,0.19,7.97,0.03,11.94-0.48c1.34-0.17,2.5-1.02,2.5-2.5
			c0-1.31-1.14-2.56-2.5-2.5c-19.31,0.8-38.61,1.6-57.92,2.4c-3.22,0.13-3.22,4.86,0,5c15.88,0.69,31.8,0.43,47.65-0.78
			c3.18-0.24,3.25-4.89,0-5c-18.76-0.63-37.52-1.26-56.27-1.88C263.3,395.17,263.31,400.17,266.52,400.28L266.52,400.28z"/>
	</g>
</g>
<g>
	<g>
		<path class="st3" d="M308.85,360.1c2.6-0.91,5.28-1.52,8.03-1.68c1.24-0.07,2.55,0.13,3.77,0.01c0.39-0.04,0.47,0.24,0.33-0.1
			c0.13,0.29-0.15,0.98-0.22,1.23c-1.1,4.04-4.33,7.17-5.32,11.28c-1.08,4.49,1.1,8.78,5.31,10.64c4.46,1.97,9.62,1.71,14.39,1.9
			c6.81,0.26,13.62,0.52,20.42,0.79c1.84,0.07,3.18-2.2,2.16-3.76c-2.25-3.43-6.19-5.05-10.21-4.24c-1.32,0.27-2.09,1.84-1.75,3.08
			c0.38,1.38,1.75,2.01,3.08,1.75c1.72-0.35,3.6,0.48,4.56,1.94c0.72-1.25,1.44-2.51,2.16-3.76c-6.07-0.23-12.14-0.47-18.21-0.7
			c-2.95-0.11-5.91-0.17-8.85-0.35c-1.85-0.11-3.81-0.34-5.53-1.08c-1.41-0.61-2.62-1.64-2.84-3.3c-0.18-1.35,0.55-3.03,1.3-4.45
			c1.02-1.91,2.23-3.73,3.12-5.71c1.01-2.24,2.11-5.18,0.86-7.54c-1.55-2.95-5.46-2.78-8.31-2.63c-3.27,0.17-6.5,0.79-9.59,1.87
			c-1.27,0.44-2.12,1.71-1.75,3.08C306.11,359.6,307.56,360.55,308.85,360.1L308.85,360.1z"/>
	</g>
</g>
<g>
	<g>
		<path d="M311.5,361.83c3.22,0,3.22-5,0-5C308.28,356.83,308.28,361.83,311.5,361.83L311.5,361.83z"/>
	</g>
</g>
<g>
	<g>
		<path d="M319.83,361c3.22,0,3.22-5,0-5C316.62,356,316.61,361,319.83,361L319.83,361z"/>
	</g>
</g>
<rect x="124.83" y="186.83" class="st4" width="115" height="56.67"/>
<g>
	<g>
		<path d="M287.21,414.82c0-2.25-0.82-3.38-2.46-3.38c-1.11,0-2.13,0.73-3.05,2.18c-0.83,1.3-1.24,2.54-1.24,3.71v1.98
			c-0.06,0,0.5,0,1.67,0c1.73,0,2.99-0.31,3.77-0.92C286.78,417.7,287.21,416.5,287.21,414.82z M288.81,422.05
			c0,0.46-0.11,0.88-0.32,1.24c-1.01,1.8-2.74,2.7-5.19,2.7c-0.77,0-1.74-0.15-2.91-0.45c0,0.03-0.01,0.06-0.02,0.09
			c0,0.05,0.03,0.19,0.09,0.43c-0.06,0.18-0.17,0.29-0.33,0.34l-0.18-0.09c-0.28,0.03-0.44-0.12-0.49-0.45
			c-0.04-0.48-0.09-0.74-0.12-0.78c-0.04-0.04-0.19-0.13-0.46-0.25c-0.21-0.09-0.31-0.22-0.31-0.4c0-0.22,0.11-0.35,0.33-0.37
			c0.22-0.02,0.33-0.07,0.35-0.15c0,0.02,0-0.1,0-0.36c0-0.25,0.01-0.66,0.03-1.21c0.02-0.55,0.03-0.97,0.03-1.25v-0.78
			c-0.33-0.1-0.49-0.25-0.49-0.42c0-0.22,0.14-0.41,0.43-0.56v-7.56c0-0.12,0.09-0.27,0.26-0.45c0.17-0.18,0.32-0.27,0.44-0.27
			c0.24,0,0.37,0.02,0.4,0.07c0.09,0.09,0.17,0.19,0.25,0.29c-0.24,1.38-0.36,2.37-0.36,2.97l0.02,0.14
			c1.02-2.62,2.54-3.94,4.57-3.94c1.17,0,2.06,0.45,2.68,1.35c0.56,0.79,0.83,1.79,0.83,2.99c0,0.9-0.21,1.79-0.63,2.66
			c-0.48,1.02-1.1,1.65-1.84,1.89C287.83,419.7,288.81,420.56,288.81,422.05z M287.69,421.91c0-0.82-0.8-1.36-2.39-1.6
			c-0.65-0.1-1.78-0.16-3.39-0.16c-0.63,0-1.14,0.04-1.51,0.14c-0.02,0.49-0.02,1.52-0.02,3.08c0,0.39,0.01,0.74,0.04,1.06
			c0.72,0.42,1.68,0.63,2.87,0.63c0.96,0,1.9-0.28,2.82-0.85C287.16,423.58,287.69,422.81,287.69,421.91z"/>
		<path d="M295.83,423.13c0-0.6-0.47-0.9-1.4-0.9c-0.74,0-1.38,0.13-1.94,0.38c-0.71,0.33-1.06,0.83-1.06,1.48
			c0,0.4,0.19,0.72,0.56,0.94c0.31,0.2,0.69,0.29,1.12,0.29c0.65,0,1.26-0.21,1.83-0.63C295.54,424.28,295.83,423.76,295.83,423.13z
			 M297.02,426.7c0,0.21-0.17,0.31-0.5,0.31c-0.36,0-0.58-0.15-0.65-0.45c-0.02-0.04-0.02-0.34-0.02-0.88
			c0-0.15-0.02-0.27-0.07-0.36c-0.84,0.62-1.75,0.92-2.72,0.92c-0.68,0-1.33-0.19-1.96-0.56c-0.72-0.42-1.08-0.95-1.08-1.58
			c0-0.61,0.43-1.21,1.28-1.8c0.78-0.54,1.5-0.81,2.16-0.81h2.23c0.09-0.09,0.14-0.25,0.14-0.47c0-1-0.08-1.76-0.25-2.27
			c-0.27-0.85-0.8-1.28-1.6-1.28c-0.57,0-1.1,0.36-1.58,1.08c-0.44,0.66-0.65,1.29-0.65,1.89c0,0.03,0,0.08,0,0.14s0,0.1,0,0.11
			c0,0.12-0.06,0.18-0.18,0.18c-0.15,0-0.32-0.09-0.5-0.27c-0.18-0.18-0.27-0.34-0.27-0.47c0-0.42,0.13-0.95,0.38-1.59
			c0.25-0.64,0.53-1.12,0.83-1.45c0.38-0.4,0.84-0.61,1.4-0.61c0.85,0,1.64,0.27,2.36,0.81c0.77,0.58,1.16,1.29,1.17,2.11
			L297.02,426.7z"/>
		<path d="M300.29,425.83c0,0.39-0.21,0.58-0.63,0.58c-0.66,0-0.98-1.36-0.97-4.07l0.07-10.1c0-0.17-0.02-0.4-0.07-0.71
			c-0.04-0.31-0.07-0.54-0.07-0.69c0.28-0.21,0.52-0.31,0.72-0.31c0.21,0,0.42,0.08,0.63,0.23c0.21,0.15,0.31,0.33,0.31,0.54
			c0,0.15-0.04,0.35-0.11,0.58c-0.09,0.3-0.14,0.49-0.16,0.56c-0.18,1.02-0.27,2.44-0.27,4.27c0,2.96-0.01,4.38-0.02,4.27
			c0.04,1.85,0.17,3.23,0.36,4.16c0,0.04,0.03,0.15,0.1,0.3C300.25,425.61,300.29,425.74,300.29,425.83z"/>
		<path d="M306.45,419.68c0-0.52-0.15-1.02-0.45-1.47c-0.3-0.46-0.7-0.69-1.19-0.69c-0.6,0-1.09,0.38-1.46,1.12
			c-0.31,0.63-0.47,1.28-0.47,1.96c0,0.44,0.14,0.8,0.42,1.09c0.28,0.29,0.63,0.44,1.07,0.44c0.62,0,1.12-0.26,1.53-0.79
			C306.26,420.87,306.45,420.32,306.45,419.68z M308,423.82c0,0.66-0.44,1.25-1.33,1.78c-0.8,0.48-1.55,0.72-2.25,0.72
			c-2.01,0-3.02-1.27-3.02-3.83c0-1.12,0.2-2.33,0.61-3.62c0.54-1.68,1.23-2.52,2.07-2.52c0.72,0,1.51,0.36,2.36,1.09
			c0.85,0.73,1.28,1.45,1.28,2.17c0,0.93-0.38,1.74-1.12,2.43s-1.6,1.03-2.54,1.03c-0.09,0-0.28-0.07-0.57-0.22s-0.49-0.23-0.6-0.23
			c-0.19,0-0.29,0.06-0.29,0.18c0,1.73,0.57,2.59,1.71,2.59c0.58,0,1.12-0.19,1.62-0.58c0.3-0.23,0.63-0.58,0.99-1.06
			c0.28-0.38,0.47-0.56,0.56-0.56C307.83,423.19,308,423.4,308,423.82z"/>
		<path d="M316.15,426.16c-0.08,0.17-0.21,0.25-0.36,0.25c-0.16,0-0.41-0.1-0.76-0.31v-0.18c0-0.14,0-0.34,0-0.61s0-0.46,0-0.58
			c0-4.98-0.62-7.47-1.86-7.47c-0.39,0-0.81,0.29-1.25,0.85c-1.13,1.41-1.7,3.19-1.7,5.33c0,0.29,0.04,0.7,0.12,1.25
			c0.08,0.55,0.12,0.96,0.12,1.25c0,0.22-0.15,0.34-0.46,0.34c-0.58,0-0.87-0.47-0.87-1.42v-5.11c0-0.14,0.01-0.33,0.02-0.58
			c0.02-0.25,0.02-0.45,0.02-0.59c0-0.19-0.03-0.48-0.08-0.85c-0.05-0.37-0.08-0.65-0.08-0.83c0-0.12,0.09-0.26,0.28-0.42
			s0.33-0.24,0.44-0.24c0.19,0,0.37,0.1,0.54,0.31c-0.04,0.98-0.07,1.55-0.07,1.71c0,0.23,0.01,0.44,0.02,0.65
			c0.14-0.05,0.31-0.29,0.54-0.74c0.28-0.57,0.52-0.96,0.72-1.17c0.36-0.42,0.77-0.63,1.24-0.63c0.18,0,0.45,0.07,0.81,0.2
			c0.81,0.3,1.39,0.8,1.73,1.49c0.58,1.19,0.88,2.75,0.88,4.7V426.16z"/>
		<path d="M324.34,423.72c0,0.36-0.31,0.85-0.92,1.46c-0.62,0.61-1.12,0.97-1.51,1.08c-0.52,0.17-0.96,0.25-1.3,0.25
			c-1.1,0-1.94-0.4-2.52-1.2c-0.54-0.71-0.81-1.62-0.81-2.75c0-1.16,0.25-2.45,0.74-3.88c0.61-1.77,1.38-2.66,2.29-2.66
			c0.43,0,1.01,0.21,1.73,0.64c0.72,0.43,1.12,0.84,1.21,1.23c0.1,0.47,0.16,0.92,0.16,1.37c0,1.65-0.25,2.48-0.74,2.48
			c-0.12,0-0.26-0.05-0.43-0.14c-0.17-0.09-0.25-0.19-0.25-0.31c0-0.06,0.03-0.14,0.09-0.24c0.06-0.1,0.1-0.16,0.11-0.19
			c0.06-0.19,0.09-0.65,0.09-1.35c0-1.67-0.38-2.5-1.12-2.5c-0.83,0-1.5,0.76-2.02,2.28c-0.39,1.17-0.58,2.29-0.58,3.34
			c0,0.81,0.13,1.49,0.38,2.03c0.34,0.71,0.88,1.06,1.6,1.06c0.43,0,0.94-0.23,1.53-0.68c0.52-0.41,0.91-0.84,1.17-1.29
			c0.06-0.15,0.15-0.36,0.27-0.64c0.08-0.11,0.18-0.16,0.31-0.16c0.09,0,0.2,0.1,0.33,0.31
			C324.27,423.46,324.34,423.61,324.34,423.72z"/>
		<path d="M327.51,413.88c0,0.51-0.24,0.76-0.72,0.76c-0.29,0-0.55-0.1-0.79-0.31c-0.24-0.21-0.36-0.45-0.36-0.72
			c0-0.51,0.25-0.77,0.76-0.77c0.3,0,0.56,0.1,0.78,0.29C327.4,413.33,327.51,413.58,327.51,413.88z M327.08,417.25
			c0,0.27-0.06,0.67-0.19,1.21s-0.19,0.94-0.19,1.21v4.97c0,0.33,0.08,0.78,0.23,1.35c-0.06,0.12-0.14,0.18-0.25,0.18
			c-0.73,0-1.1-0.35-1.1-1.06v-8.26c0.19-0.1,0.38-0.16,0.56-0.16c0.18,0,0.37,0.05,0.56,0.16
			C326.96,416.98,327.08,417.11,327.08,417.25z"/>
		<path d="M333.92,423.13c0-0.6-0.47-0.9-1.4-0.9c-0.74,0-1.38,0.13-1.94,0.38c-0.71,0.33-1.06,0.83-1.06,1.48
			c0,0.4,0.19,0.72,0.56,0.94c0.31,0.2,0.69,0.29,1.12,0.29c0.65,0,1.26-0.21,1.83-0.63C333.64,424.28,333.92,423.76,333.92,423.13z
			 M335.12,426.7c0,0.21-0.17,0.31-0.5,0.31c-0.36,0-0.58-0.15-0.65-0.45c-0.02-0.04-0.02-0.34-0.02-0.88
			c0-0.15-0.02-0.27-0.07-0.36c-0.84,0.62-1.75,0.92-2.72,0.92c-0.68,0-1.33-0.19-1.96-0.56c-0.72-0.42-1.08-0.95-1.08-1.58
			c0-0.61,0.43-1.21,1.28-1.8c0.78-0.54,1.5-0.81,2.16-0.81h2.23c0.09-0.09,0.14-0.25,0.14-0.47c0-1-0.08-1.76-0.25-2.27
			c-0.27-0.85-0.8-1.28-1.6-1.28c-0.57,0-1.1,0.36-1.58,1.08c-0.44,0.66-0.65,1.29-0.65,1.89c0,0.03,0,0.08,0,0.14s0,0.1,0,0.11
			c0,0.12-0.06,0.18-0.18,0.18c-0.15,0-0.32-0.09-0.5-0.27c-0.18-0.18-0.27-0.34-0.27-0.47c0-0.42,0.13-0.95,0.38-1.59
			c0.25-0.64,0.53-1.12,0.83-1.45c0.38-0.4,0.84-0.61,1.4-0.61c0.85,0,1.64,0.27,2.36,0.81c0.77,0.58,1.16,1.29,1.17,2.11
			L335.12,426.7z"/>
		<path d="M341.96,420.54c0-0.31-0.11-0.58-0.34-0.79c-0.04-0.63-0.2-1.17-0.47-1.62c-0.35-0.55-0.81-0.83-1.4-0.83
			c-0.4,0-0.81,0.46-1.21,1.37c-0.3,0.69-0.5,1.33-0.61,1.94c-0.15,0.9-0.23,1.67-0.23,2.29c0,1.84,0.53,2.77,1.6,2.77
			c0.81,0,1.49-0.68,2.03-2.03C341.75,422.55,341.96,421.52,341.96,420.54z M343.31,419.3c0,0.09-0.01,0.22-0.02,0.38
			c-0.31,1.5-0.47,2.71-0.47,3.62c0,0.47,0.02,1.18,0.07,2.14c0.04,0.96,0.07,1.68,0.07,2.16c0,0.93-0.08,1.6-0.22,2.02
			c-0.18,0.49-0.53,0.91-1.04,1.24c-0.51,0.33-1.04,0.5-1.58,0.5c-0.63,0-1.36-0.14-2.18-0.41c-1.05-0.33-1.58-0.73-1.58-1.19
			c0-0.4,0.16-0.61,0.47-0.61c0.13,0,0.25,0.09,0.36,0.27c0.15,0.25,0.25,0.4,0.29,0.43c0.12,0.12,0.43,0.23,0.92,0.34
			c0.45,0.12,0.79,0.18,1.01,0.18c0.84,0,1.48-0.33,1.91-0.99c0.37-0.56,0.56-1.28,0.56-2.18c0-0.96-0.08-1.72-0.25-2.29
			c-0.72,0.94-1.58,1.42-2.59,1.42c-0.3,0-0.65-0.1-1.06-0.3c-0.41-0.2-0.71-0.42-0.9-0.66c-0.41-0.48-0.61-1.24-0.61-2.27
			c0-1.27,0.23-2.65,0.7-4.12c0.6-1.9,1.39-2.86,2.36-2.86c0.78,0,1.6,0.71,2.48,2.11c0.09,0.17,0.23,0.38,0.43,0.65
			C342.65,418.94,342.93,419.08,343.31,419.3z"/>
		<path d="M349.9,423.13c0-0.6-0.47-0.9-1.4-0.9c-0.74,0-1.38,0.13-1.94,0.38c-0.71,0.33-1.06,0.83-1.06,1.48
			c0,0.4,0.19,0.72,0.56,0.94c0.31,0.2,0.69,0.29,1.12,0.29c0.65,0,1.26-0.21,1.83-0.63C349.61,424.28,349.9,423.76,349.9,423.13z
			 M351.09,426.7c0,0.21-0.17,0.31-0.5,0.31c-0.36,0-0.58-0.15-0.65-0.45c-0.02-0.04-0.02-0.34-0.02-0.88
			c0-0.15-0.02-0.27-0.07-0.36c-0.84,0.62-1.75,0.92-2.72,0.92c-0.68,0-1.33-0.19-1.96-0.56c-0.72-0.42-1.08-0.95-1.08-1.58
			c0-0.61,0.43-1.21,1.28-1.8c0.78-0.54,1.5-0.81,2.16-0.81h2.23c0.09-0.09,0.14-0.25,0.14-0.47c0-1-0.08-1.76-0.25-2.27
			c-0.27-0.85-0.8-1.28-1.6-1.28c-0.57,0-1.1,0.36-1.58,1.08c-0.44,0.66-0.65,1.29-0.65,1.89c0,0.03,0,0.08,0,0.14s0,0.1,0,0.11
			c0,0.12-0.06,0.18-0.18,0.18c-0.15,0-0.32-0.09-0.5-0.27c-0.18-0.18-0.27-0.34-0.27-0.47c0-0.42,0.13-0.95,0.38-1.59
			c0.25-0.64,0.53-1.12,0.83-1.45c0.38-0.4,0.84-0.61,1.4-0.61c0.85,0,1.64,0.27,2.36,0.81c0.77,0.58,1.16,1.29,1.17,2.11
			L351.09,426.7z"/>
	</g>
	<g>
		<path class="st5" d="M286.65,434.8c0-2.25-0.82-3.38-2.46-3.38c-1.11,0-2.13,0.73-3.05,2.18c-0.83,1.3-1.24,2.54-1.24,3.71v1.98
			c-0.06,0,0.5,0,1.67,0c1.73,0,2.99-0.3,3.77-0.92C286.22,437.67,286.65,436.48,286.65,434.8z M288.25,442.02
			c0,0.46-0.11,0.88-0.32,1.24c-1.01,1.8-2.74,2.7-5.19,2.7c-0.77,0-1.74-0.15-2.91-0.45c0,0.03-0.01,0.06-0.02,0.09
			c0,0.05,0.03,0.19,0.09,0.43c-0.06,0.18-0.17,0.29-0.33,0.34l-0.18-0.09c-0.28,0.03-0.45-0.12-0.49-0.45
			c-0.05-0.48-0.09-0.74-0.12-0.78c-0.04-0.05-0.19-0.13-0.46-0.25c-0.21-0.09-0.31-0.22-0.31-0.4c0-0.22,0.11-0.35,0.33-0.37
			c0.22-0.02,0.33-0.07,0.35-0.15c0,0.02,0-0.1,0-0.36c0-0.25,0.01-0.66,0.03-1.21c0.02-0.55,0.03-0.97,0.03-1.25v-0.78
			c-0.33-0.1-0.49-0.25-0.49-0.42c0-0.22,0.14-0.41,0.43-0.56v-7.56c0-0.12,0.09-0.27,0.26-0.45c0.17-0.18,0.32-0.27,0.44-0.27
			c0.24,0,0.37,0.02,0.4,0.07c0.09,0.09,0.17,0.19,0.25,0.29c-0.24,1.38-0.36,2.37-0.36,2.97l0.02,0.14
			c1.02-2.62,2.54-3.94,4.57-3.94c1.17,0,2.06,0.45,2.68,1.35c0.55,0.8,0.83,1.79,0.83,2.99c0,0.9-0.21,1.78-0.63,2.66
			c-0.49,1.02-1.1,1.65-1.84,1.89C287.27,439.67,288.25,440.53,288.25,442.02z M287.12,441.88c0-0.82-0.8-1.35-2.39-1.6
			c-0.65-0.1-1.78-0.16-3.39-0.16c-0.63,0-1.14,0.04-1.51,0.14c-0.02,0.49-0.02,1.52-0.02,3.08c0,0.39,0.01,0.74,0.04,1.06
			c0.72,0.42,1.68,0.63,2.87,0.63c0.96,0,1.9-0.29,2.82-0.85C286.59,443.54,287.12,442.78,287.12,441.88z"/>
		<path class="st5" d="M295.27,443.1c0-0.6-0.47-0.9-1.4-0.9c-0.74,0-1.38,0.13-1.94,0.38c-0.71,0.33-1.06,0.83-1.06,1.48
			c0,0.4,0.19,0.72,0.56,0.94c0.32,0.19,0.69,0.29,1.12,0.29c0.65,0,1.26-0.21,1.83-0.63C294.98,444.25,295.27,443.73,295.27,443.1z
			 M296.46,446.68c0,0.21-0.17,0.31-0.5,0.31c-0.36,0-0.58-0.15-0.65-0.45c-0.02-0.04-0.02-0.34-0.02-0.88
			c0-0.15-0.02-0.27-0.07-0.36c-0.84,0.62-1.75,0.92-2.72,0.92c-0.68,0-1.33-0.19-1.96-0.56c-0.72-0.42-1.08-0.95-1.08-1.58
			c0-0.61,0.43-1.21,1.28-1.8c0.78-0.54,1.5-0.81,2.16-0.81h2.23c0.09-0.09,0.14-0.25,0.14-0.47c0-1-0.08-1.76-0.25-2.27
			c-0.27-0.85-0.8-1.28-1.6-1.28c-0.57,0-1.1,0.36-1.58,1.08c-0.44,0.66-0.65,1.29-0.65,1.89c0,0.03,0,0.08,0,0.14s0,0.1,0,0.11
			c0,0.12-0.06,0.18-0.18,0.18c-0.15,0-0.32-0.09-0.5-0.27c-0.18-0.18-0.27-0.34-0.27-0.47c0-0.42,0.13-0.95,0.38-1.59
			c0.25-0.64,0.53-1.12,0.83-1.45c0.37-0.41,0.84-0.61,1.4-0.61c0.85,0,1.65,0.27,2.36,0.81c0.77,0.58,1.16,1.29,1.17,2.11
			L296.46,446.68z"/>
		<path class="st5" d="M299.72,445.8c0,0.39-0.21,0.58-0.63,0.58c-0.66,0-0.98-1.36-0.97-4.07l0.07-10.1c0-0.17-0.02-0.4-0.07-0.71
			c-0.04-0.31-0.07-0.54-0.07-0.69c0.28-0.21,0.52-0.31,0.72-0.31c0.21,0,0.42,0.08,0.63,0.23c0.21,0.15,0.31,0.33,0.31,0.54
			c0,0.15-0.04,0.34-0.11,0.58c-0.09,0.3-0.14,0.49-0.16,0.56c-0.18,1.02-0.27,2.44-0.27,4.27c0,2.96-0.01,4.38-0.02,4.27
			c0.04,1.85,0.17,3.23,0.36,4.16c0,0.04,0.03,0.15,0.1,0.3C299.69,445.58,299.72,445.71,299.72,445.8z"/>
		<path class="st5" d="M305.89,439.66c0-0.52-0.15-1.02-0.45-1.47c-0.3-0.46-0.7-0.69-1.19-0.69c-0.6,0-1.09,0.38-1.46,1.12
			c-0.31,0.63-0.47,1.28-0.47,1.96c0,0.44,0.14,0.8,0.42,1.09c0.28,0.29,0.63,0.44,1.07,0.44c0.62,0,1.12-0.26,1.53-0.79
			C305.7,440.84,305.89,440.29,305.89,439.66z M307.44,443.8c0,0.66-0.44,1.25-1.33,1.78c-0.8,0.48-1.55,0.72-2.25,0.72
			c-2.01,0-3.02-1.27-3.02-3.83c0-1.12,0.2-2.33,0.61-3.62c0.53-1.68,1.23-2.52,2.07-2.52c0.72,0,1.51,0.36,2.36,1.09
			c0.85,0.73,1.28,1.45,1.28,2.17c0,0.93-0.38,1.74-1.12,2.43s-1.6,1.03-2.54,1.03c-0.09,0-0.28-0.07-0.57-0.22s-0.49-0.23-0.6-0.23
			c-0.19,0-0.29,0.06-0.29,0.18c0,1.73,0.57,2.59,1.71,2.59c0.58,0,1.12-0.19,1.62-0.58c0.3-0.23,0.63-0.58,0.99-1.06
			c0.28-0.38,0.47-0.56,0.56-0.56C307.27,443.17,307.44,443.38,307.44,443.8z"/>
		<path class="st5" d="M315.59,446.14c-0.08,0.17-0.21,0.25-0.36,0.25c-0.16,0-0.41-0.1-0.76-0.31v-0.18c0-0.14,0-0.34,0-0.61
			s0-0.46,0-0.58c0-4.98-0.62-7.47-1.86-7.47c-0.39,0-0.81,0.29-1.25,0.85c-1.13,1.41-1.7,3.19-1.7,5.33c0,0.29,0.04,0.7,0.12,1.25
			c0.08,0.55,0.12,0.96,0.12,1.25c0,0.22-0.15,0.34-0.46,0.34c-0.58,0-0.87-0.47-0.87-1.42v-5.11c0-0.14,0.01-0.33,0.02-0.58
			c0.02-0.25,0.02-0.45,0.02-0.59c0-0.19-0.03-0.48-0.08-0.85c-0.05-0.37-0.08-0.65-0.08-0.83c0-0.12,0.09-0.26,0.28-0.42
			s0.33-0.24,0.44-0.24c0.19,0,0.37,0.1,0.54,0.31c-0.04,0.98-0.07,1.55-0.07,1.71c0,0.23,0.01,0.44,0.02,0.65
			c0.14-0.05,0.31-0.29,0.54-0.74c0.28-0.57,0.52-0.96,0.72-1.17c0.36-0.42,0.77-0.63,1.24-0.63c0.18,0,0.45,0.07,0.81,0.2
			c0.81,0.3,1.39,0.8,1.73,1.49c0.58,1.19,0.88,2.75,0.88,4.7V446.14z"/>
		<path class="st5" d="M323.78,443.69c0,0.36-0.31,0.85-0.92,1.46c-0.62,0.61-1.12,0.96-1.51,1.08c-0.53,0.16-0.96,0.25-1.3,0.25
			c-1.1,0-1.93-0.4-2.52-1.2c-0.53-0.71-0.81-1.62-0.81-2.75c0-1.16,0.25-2.45,0.74-3.88c0.61-1.77,1.38-2.66,2.29-2.66
			c0.43,0,1.01,0.21,1.73,0.64c0.72,0.43,1.13,0.84,1.21,1.23c0.11,0.47,0.16,0.92,0.16,1.37c0,1.65-0.25,2.48-0.74,2.48
			c-0.12,0-0.26-0.05-0.43-0.14c-0.17-0.09-0.25-0.19-0.25-0.31c0-0.06,0.03-0.14,0.09-0.24c0.06-0.1,0.1-0.16,0.11-0.19
			c0.06-0.19,0.09-0.65,0.09-1.35c0-1.67-0.38-2.5-1.12-2.5c-0.83,0-1.51,0.76-2.02,2.28c-0.4,1.17-0.58,2.29-0.58,3.34
			c0,0.81,0.12,1.49,0.38,2.03c0.34,0.71,0.88,1.06,1.6,1.06c0.43,0,0.94-0.23,1.53-0.68c0.52-0.41,0.91-0.84,1.17-1.29
			c0.06-0.15,0.15-0.36,0.27-0.64c0.08-0.11,0.18-0.16,0.31-0.16c0.09,0,0.2,0.1,0.33,0.31
			C323.71,443.43,323.78,443.58,323.78,443.69z"/>
		<path class="st5" d="M326.95,433.85c0,0.51-0.24,0.76-0.72,0.76c-0.29,0-0.55-0.1-0.79-0.31c-0.24-0.21-0.36-0.45-0.36-0.72
			c0-0.51,0.25-0.77,0.76-0.77c0.3,0,0.56,0.1,0.78,0.29C326.84,433.3,326.95,433.55,326.95,433.85z M326.52,437.23
			c0,0.27-0.06,0.67-0.19,1.21s-0.19,0.94-0.19,1.21v4.97c0,0.33,0.08,0.78,0.23,1.35c-0.06,0.12-0.14,0.18-0.25,0.18
			c-0.73,0-1.1-0.35-1.1-1.06v-8.26c0.19-0.1,0.38-0.16,0.56-0.16c0.18,0,0.36,0.06,0.56,0.16
			C326.39,436.96,326.52,437.08,326.52,437.23z"/>
		<path class="st5" d="M333.36,443.1c0-0.6-0.47-0.9-1.4-0.9c-0.74,0-1.38,0.13-1.94,0.38c-0.71,0.33-1.06,0.83-1.06,1.48
			c0,0.4,0.19,0.72,0.56,0.94c0.32,0.19,0.69,0.29,1.12,0.29c0.65,0,1.26-0.21,1.83-0.63C333.07,444.25,333.36,443.73,333.36,443.1z
			 M334.55,446.68c0,0.21-0.17,0.31-0.5,0.31c-0.36,0-0.58-0.15-0.65-0.45c-0.02-0.04-0.02-0.34-0.02-0.88
			c0-0.15-0.02-0.27-0.07-0.36c-0.84,0.62-1.75,0.92-2.72,0.92c-0.68,0-1.33-0.19-1.96-0.56c-0.72-0.42-1.08-0.95-1.08-1.58
			c0-0.61,0.43-1.21,1.28-1.8c0.78-0.54,1.5-0.81,2.16-0.81h2.23c0.09-0.09,0.14-0.25,0.14-0.47c0-1-0.08-1.76-0.25-2.27
			c-0.27-0.85-0.8-1.28-1.6-1.28c-0.57,0-1.1,0.36-1.58,1.08c-0.44,0.66-0.65,1.29-0.65,1.89c0,0.03,0,0.08,0,0.14s0,0.1,0,0.11
			c0,0.12-0.06,0.18-0.18,0.18c-0.15,0-0.32-0.09-0.5-0.27c-0.18-0.18-0.27-0.34-0.27-0.47c0-0.42,0.13-0.95,0.38-1.59
			c0.25-0.64,0.53-1.12,0.83-1.45c0.37-0.41,0.84-0.61,1.4-0.61c0.85,0,1.65,0.27,2.36,0.81c0.77,0.58,1.16,1.29,1.17,2.11
			L334.55,446.68z"/>
		<path class="st5" d="M341.39,440.51c0-0.31-0.11-0.58-0.34-0.79c-0.04-0.63-0.2-1.17-0.47-1.62c-0.34-0.56-0.81-0.83-1.4-0.83
			c-0.4,0-0.81,0.46-1.21,1.37c-0.3,0.69-0.5,1.33-0.61,1.94c-0.15,0.9-0.23,1.67-0.23,2.29c0,1.84,0.53,2.77,1.6,2.77
			c0.81,0,1.5-0.67,2.03-2.03C341.19,442.52,341.39,441.49,341.39,440.51z M342.74,439.27c0,0.09-0.01,0.22-0.02,0.38
			c-0.31,1.5-0.47,2.71-0.47,3.62c0,0.47,0.02,1.18,0.07,2.14c0.04,0.96,0.07,1.68,0.07,2.16c0,0.93-0.07,1.61-0.22,2.02
			c-0.18,0.5-0.53,0.91-1.04,1.24c-0.51,0.33-1.04,0.5-1.58,0.5c-0.63,0-1.36-0.14-2.18-0.41c-1.05-0.34-1.58-0.73-1.58-1.19
			c0-0.4,0.16-0.61,0.47-0.61c0.13,0,0.25,0.09,0.36,0.27c0.15,0.26,0.25,0.4,0.29,0.43c0.12,0.12,0.43,0.22,0.92,0.34
			c0.45,0.11,0.79,0.18,1.01,0.18c0.84,0,1.47-0.33,1.91-0.99c0.37-0.56,0.56-1.28,0.56-2.18c0-0.96-0.08-1.72-0.25-2.29
			c-0.72,0.94-1.58,1.42-2.59,1.42c-0.3,0-0.65-0.1-1.06-0.3c-0.41-0.2-0.71-0.42-0.9-0.66c-0.41-0.48-0.61-1.24-0.61-2.27
			c0-1.27,0.23-2.65,0.7-4.12c0.6-1.9,1.39-2.86,2.36-2.86c0.78,0,1.6,0.71,2.48,2.11c0.09,0.17,0.23,0.38,0.43,0.65
			C342.08,438.91,342.37,439.05,342.74,439.27z"/>
		<path class="st5" d="M349.34,443.1c0-0.6-0.47-0.9-1.4-0.9c-0.74,0-1.38,0.13-1.94,0.38c-0.71,0.33-1.06,0.83-1.06,1.48
			c0,0.4,0.19,0.72,0.56,0.94c0.32,0.19,0.69,0.29,1.12,0.29c0.65,0,1.26-0.21,1.83-0.63C349.05,444.25,349.34,443.73,349.34,443.1z
			 M350.53,446.68c0,0.21-0.17,0.31-0.5,0.31c-0.36,0-0.58-0.15-0.65-0.45c-0.02-0.04-0.02-0.34-0.02-0.88
			c0-0.15-0.02-0.27-0.07-0.36c-0.84,0.62-1.75,0.92-2.72,0.92c-0.68,0-1.33-0.19-1.96-0.56c-0.72-0.42-1.08-0.95-1.08-1.58
			c0-0.61,0.43-1.21,1.28-1.8c0.78-0.54,1.5-0.81,2.16-0.81h2.23c0.09-0.09,0.14-0.25,0.14-0.47c0-1-0.08-1.76-0.25-2.27
			c-0.27-0.85-0.8-1.28-1.6-1.28c-0.57,0-1.1,0.36-1.58,1.08c-0.44,0.66-0.65,1.29-0.65,1.89c0,0.03,0,0.08,0,0.14s0,0.1,0,0.11
			c0,0.12-0.06,0.18-0.18,0.18c-0.15,0-0.32-0.09-0.5-0.27c-0.18-0.18-0.27-0.34-0.27-0.47c0-0.42,0.13-0.95,0.38-1.59
			c0.25-0.64,0.53-1.12,0.83-1.45c0.37-0.41,0.84-0.61,1.4-0.61c0.85,0,1.65,0.27,2.36,0.81c0.77,0.58,1.16,1.29,1.17,2.11
			L350.53,446.68z"/>
	</g>
	<g>
		<path class="st6" d="M286.09,454.77c0-2.25-0.82-3.38-2.46-3.38c-1.11,0-2.13,0.73-3.05,2.18c-0.83,1.3-1.24,2.54-1.24,3.71v1.98
			c-0.06,0,0.5,0,1.67,0c1.73,0,2.99-0.3,3.77-0.92C285.66,457.65,286.09,456.45,286.09,454.77z M287.69,461.99
			c0,0.46-0.11,0.88-0.32,1.24c-1.01,1.8-2.74,2.7-5.19,2.7c-0.77,0-1.74-0.15-2.91-0.45c0,0.03-0.01,0.06-0.02,0.09
			c0,0.05,0.03,0.19,0.09,0.43c-0.06,0.18-0.17,0.29-0.33,0.34l-0.18-0.09c-0.28,0.03-0.45-0.12-0.49-0.45
			c-0.05-0.48-0.09-0.74-0.12-0.78c-0.04-0.05-0.19-0.13-0.46-0.25c-0.21-0.09-0.31-0.22-0.31-0.4c0-0.22,0.11-0.35,0.33-0.37
			c0.22-0.02,0.33-0.07,0.35-0.15c0,0.02,0-0.1,0-0.36c0-0.25,0.01-0.66,0.03-1.21c0.02-0.55,0.03-0.97,0.03-1.25v-0.78
			c-0.33-0.1-0.49-0.25-0.49-0.42c0-0.22,0.14-0.41,0.43-0.56v-7.56c0-0.12,0.09-0.27,0.26-0.45c0.17-0.18,0.32-0.27,0.44-0.27
			c0.24,0,0.37,0.02,0.4,0.07c0.09,0.09,0.17,0.19,0.25,0.29c-0.24,1.38-0.36,2.37-0.36,2.97l0.02,0.14
			c1.02-2.62,2.54-3.94,4.57-3.94c1.17,0,2.06,0.45,2.68,1.35c0.55,0.8,0.83,1.79,0.83,2.99c0,0.9-0.21,1.78-0.63,2.66
			c-0.49,1.02-1.1,1.65-1.84,1.89C286.7,459.64,287.69,460.5,287.69,461.99z M286.56,461.85c0-0.82-0.8-1.35-2.39-1.6
			c-0.65-0.1-1.78-0.16-3.39-0.16c-0.63,0-1.14,0.04-1.51,0.14c-0.02,0.49-0.02,1.52-0.02,3.08c0,0.39,0.01,0.74,0.04,1.06
			c0.72,0.42,1.68,0.63,2.87,0.63c0.96,0,1.9-0.29,2.82-0.85C286.03,463.51,286.56,462.75,286.56,461.85z"/>
		<path class="st6" d="M294.71,463.07c0-0.6-0.47-0.9-1.4-0.9c-0.74,0-1.38,0.13-1.94,0.38c-0.71,0.33-1.06,0.83-1.06,1.48
			c0,0.4,0.19,0.72,0.56,0.94c0.32,0.19,0.69,0.29,1.12,0.29c0.65,0,1.26-0.21,1.83-0.63C294.42,464.23,294.71,463.7,294.71,463.07z
			 M295.9,466.65c0,0.21-0.17,0.31-0.5,0.31c-0.36,0-0.58-0.15-0.65-0.45c-0.02-0.04-0.02-0.34-0.02-0.88
			c0-0.15-0.02-0.27-0.07-0.36c-0.84,0.62-1.75,0.92-2.72,0.92c-0.68,0-1.33-0.19-1.96-0.56c-0.72-0.42-1.08-0.95-1.08-1.58
			c0-0.61,0.43-1.21,1.28-1.8c0.78-0.54,1.5-0.81,2.16-0.81h2.23c0.09-0.09,0.14-0.25,0.14-0.47c0-1-0.08-1.76-0.25-2.27
			c-0.27-0.85-0.8-1.28-1.6-1.28c-0.57,0-1.1,0.36-1.58,1.08c-0.44,0.66-0.65,1.29-0.65,1.89c0,0.03,0,0.08,0,0.14s0,0.1,0,0.11
			c0,0.12-0.06,0.18-0.18,0.18c-0.15,0-0.32-0.09-0.5-0.27c-0.18-0.18-0.27-0.34-0.27-0.47c0-0.42,0.13-0.95,0.38-1.59
			c0.25-0.64,0.53-1.12,0.83-1.45c0.37-0.41,0.84-0.61,1.4-0.61c0.85,0,1.65,0.27,2.36,0.81c0.77,0.58,1.16,1.29,1.17,2.11
			L295.9,466.65z"/>
		<path class="st6" d="M299.16,465.77c0,0.39-0.21,0.58-0.63,0.58c-0.66,0-0.98-1.36-0.97-4.07l0.07-10.1c0-0.17-0.02-0.4-0.07-0.71
			c-0.04-0.31-0.07-0.54-0.07-0.69c0.28-0.21,0.52-0.31,0.72-0.31c0.21,0,0.42,0.08,0.63,0.23c0.21,0.15,0.31,0.33,0.31,0.54
			c0,0.15-0.04,0.34-0.11,0.58c-0.09,0.3-0.14,0.49-0.16,0.56c-0.18,1.02-0.27,2.44-0.27,4.27c0,2.96-0.01,4.38-0.02,4.27
			c0.04,1.85,0.17,3.23,0.36,4.16c0,0.04,0.03,0.15,0.1,0.3C299.13,465.56,299.16,465.68,299.16,465.77z"/>
		<path class="st6" d="M305.33,459.63c0-0.52-0.15-1.02-0.45-1.47c-0.3-0.46-0.7-0.69-1.19-0.69c-0.6,0-1.09,0.38-1.46,1.12
			c-0.31,0.63-0.47,1.28-0.47,1.96c0,0.44,0.14,0.8,0.42,1.09c0.28,0.29,0.63,0.44,1.07,0.44c0.62,0,1.12-0.26,1.53-0.79
			C305.14,460.81,305.33,460.26,305.33,459.63z M306.88,463.77c0,0.66-0.44,1.25-1.33,1.78c-0.8,0.48-1.55,0.72-2.25,0.72
			c-2.01,0-3.02-1.27-3.02-3.83c0-1.12,0.2-2.33,0.61-3.62c0.53-1.68,1.23-2.52,2.07-2.52c0.72,0,1.51,0.36,2.36,1.09
			c0.85,0.73,1.28,1.45,1.28,2.17c0,0.93-0.38,1.74-1.12,2.43s-1.6,1.03-2.54,1.03c-0.09,0-0.28-0.07-0.57-0.22s-0.49-0.23-0.6-0.23
			c-0.19,0-0.29,0.06-0.29,0.18c0,1.73,0.57,2.59,1.71,2.59c0.58,0,1.12-0.19,1.62-0.58c0.3-0.23,0.63-0.58,0.99-1.06
			c0.28-0.38,0.47-0.56,0.56-0.56C306.71,463.14,306.88,463.35,306.88,463.77z"/>
		<path class="st6" d="M315.02,466.11c-0.08,0.17-0.21,0.25-0.36,0.25c-0.16,0-0.41-0.1-0.76-0.31v-0.18c0-0.14,0-0.34,0-0.61
			s0-0.46,0-0.58c0-4.98-0.62-7.47-1.86-7.47c-0.39,0-0.81,0.29-1.25,0.85c-1.13,1.41-1.7,3.19-1.7,5.33c0,0.29,0.04,0.7,0.12,1.25
			c0.08,0.55,0.12,0.96,0.12,1.25c0,0.22-0.15,0.34-0.46,0.34c-0.58,0-0.87-0.47-0.87-1.42v-5.11c0-0.14,0.01-0.33,0.02-0.58
			c0.02-0.25,0.02-0.45,0.02-0.59c0-0.19-0.03-0.48-0.08-0.85c-0.05-0.37-0.08-0.65-0.08-0.83c0-0.12,0.09-0.26,0.28-0.42
			s0.33-0.24,0.44-0.24c0.19,0,0.37,0.1,0.54,0.31c-0.04,0.98-0.07,1.55-0.07,1.71c0,0.23,0.01,0.44,0.02,0.65
			c0.14-0.05,0.31-0.29,0.54-0.74c0.28-0.57,0.52-0.96,0.72-1.17c0.36-0.42,0.77-0.63,1.24-0.63c0.18,0,0.45,0.07,0.81,0.2
			c0.81,0.3,1.39,0.8,1.73,1.49c0.58,1.19,0.88,2.75,0.88,4.7V466.11z"/>
		<path class="st6" d="M323.21,463.66c0,0.36-0.31,0.85-0.92,1.46c-0.62,0.61-1.12,0.96-1.51,1.08c-0.53,0.16-0.96,0.25-1.3,0.25
			c-1.1,0-1.93-0.4-2.52-1.2c-0.53-0.71-0.81-1.62-0.81-2.75c0-1.16,0.25-2.45,0.74-3.88c0.61-1.77,1.38-2.66,2.29-2.66
			c0.43,0,1.01,0.21,1.73,0.64c0.72,0.43,1.13,0.84,1.21,1.23c0.11,0.47,0.16,0.92,0.16,1.37c0,1.65-0.25,2.48-0.74,2.48
			c-0.12,0-0.26-0.05-0.43-0.14c-0.17-0.09-0.25-0.19-0.25-0.31c0-0.06,0.03-0.14,0.09-0.24c0.06-0.1,0.1-0.16,0.11-0.19
			c0.06-0.19,0.09-0.65,0.09-1.35c0-1.67-0.38-2.5-1.12-2.5c-0.83,0-1.51,0.76-2.02,2.28c-0.4,1.17-0.58,2.29-0.58,3.34
			c0,0.81,0.12,1.49,0.38,2.03c0.34,0.71,0.88,1.06,1.6,1.06c0.43,0,0.94-0.23,1.53-0.68c0.52-0.41,0.91-0.84,1.17-1.29
			c0.06-0.15,0.15-0.36,0.27-0.64c0.08-0.11,0.18-0.16,0.31-0.16c0.09,0,0.2,0.1,0.33,0.31
			C323.15,463.4,323.21,463.55,323.21,463.66z"/>
		<path class="st6" d="M326.39,453.82c0,0.51-0.24,0.76-0.72,0.76c-0.29,0-0.55-0.1-0.79-0.31c-0.24-0.21-0.36-0.45-0.36-0.72
			c0-0.51,0.25-0.77,0.76-0.77c0.3,0,0.56,0.1,0.78,0.29C326.28,453.28,326.39,453.52,326.39,453.82z M325.96,457.2
			c0,0.27-0.06,0.67-0.19,1.21s-0.19,0.94-0.19,1.21v4.97c0,0.33,0.08,0.78,0.23,1.35c-0.06,0.12-0.14,0.18-0.25,0.18
			c-0.73,0-1.1-0.35-1.1-1.06v-8.26c0.19-0.1,0.38-0.16,0.56-0.16c0.18,0,0.36,0.06,0.56,0.16
			C325.83,456.93,325.96,457.05,325.96,457.2z"/>
		<path class="st6" d="M332.8,463.07c0-0.6-0.47-0.9-1.4-0.9c-0.74,0-1.38,0.13-1.94,0.38c-0.71,0.33-1.06,0.83-1.06,1.48
			c0,0.4,0.19,0.72,0.56,0.94c0.32,0.19,0.69,0.29,1.12,0.29c0.65,0,1.26-0.21,1.83-0.63C332.51,464.23,332.8,463.7,332.8,463.07z
			 M333.99,466.65c0,0.21-0.17,0.31-0.5,0.31c-0.36,0-0.58-0.15-0.65-0.45c-0.02-0.04-0.02-0.34-0.02-0.88
			c0-0.15-0.02-0.27-0.07-0.36c-0.84,0.62-1.75,0.92-2.72,0.92c-0.68,0-1.33-0.19-1.96-0.56c-0.72-0.42-1.08-0.95-1.08-1.58
			c0-0.61,0.43-1.21,1.28-1.8c0.78-0.54,1.5-0.81,2.16-0.81h2.23c0.09-0.09,0.14-0.25,0.14-0.47c0-1-0.08-1.76-0.25-2.27
			c-0.27-0.85-0.8-1.28-1.6-1.28c-0.57,0-1.1,0.36-1.58,1.08c-0.44,0.66-0.65,1.29-0.65,1.89c0,0.03,0,0.08,0,0.14s0,0.1,0,0.11
			c0,0.12-0.06,0.18-0.18,0.18c-0.15,0-0.32-0.09-0.5-0.27c-0.18-0.18-0.27-0.34-0.27-0.47c0-0.42,0.13-0.95,0.38-1.59
			c0.25-0.64,0.53-1.12,0.83-1.45c0.37-0.41,0.84-0.61,1.4-0.61c0.85,0,1.65,0.27,2.36,0.81c0.77,0.58,1.16,1.29,1.17,2.11
			L333.99,466.65z"/>
		<path class="st6" d="M340.83,460.48c0-0.31-0.11-0.58-0.34-0.79c-0.04-0.63-0.2-1.17-0.47-1.62c-0.34-0.56-0.81-0.83-1.4-0.83
			c-0.4,0-0.81,0.46-1.21,1.37c-0.3,0.69-0.5,1.33-0.61,1.94c-0.15,0.9-0.23,1.67-0.23,2.29c0,1.84,0.53,2.77,1.6,2.77
			c0.81,0,1.5-0.67,2.03-2.03C340.63,462.5,340.83,461.46,340.83,460.48z M342.18,459.24c0,0.09-0.01,0.22-0.02,0.38
			c-0.31,1.5-0.47,2.71-0.47,3.62c0,0.47,0.02,1.18,0.07,2.14c0.04,0.96,0.07,1.68,0.07,2.16c0,0.93-0.07,1.61-0.22,2.02
			c-0.18,0.5-0.53,0.91-1.04,1.24c-0.51,0.33-1.04,0.5-1.58,0.5c-0.63,0-1.36-0.14-2.18-0.41c-1.05-0.34-1.58-0.73-1.58-1.19
			c0-0.4,0.16-0.61,0.47-0.61c0.13,0,0.25,0.09,0.36,0.27c0.15,0.26,0.25,0.4,0.29,0.43c0.12,0.12,0.43,0.22,0.92,0.34
			c0.45,0.11,0.79,0.18,1.01,0.18c0.84,0,1.47-0.33,1.91-0.99c0.37-0.56,0.56-1.28,0.56-2.18c0-0.96-0.08-1.72-0.25-2.29
			c-0.72,0.94-1.58,1.42-2.59,1.42c-0.3,0-0.65-0.1-1.06-0.3c-0.41-0.2-0.71-0.42-0.9-0.66c-0.41-0.48-0.61-1.24-0.61-2.27
			c0-1.27,0.23-2.65,0.7-4.12c0.6-1.9,1.39-2.86,2.36-2.86c0.78,0,1.6,0.71,2.48,2.11c0.09,0.17,0.23,0.38,0.43,0.65
			C341.52,458.88,341.81,459.02,342.18,459.24z"/>
		<path class="st6" d="M348.77,463.07c0-0.6-0.47-0.9-1.4-0.9c-0.74,0-1.38,0.13-1.94,0.38c-0.71,0.33-1.06,0.83-1.06,1.48
			c0,0.4,0.19,0.72,0.56,0.94c0.32,0.19,0.69,0.29,1.12,0.29c0.65,0,1.26-0.21,1.83-0.63C348.49,464.23,348.77,463.7,348.77,463.07z
			 M349.97,466.65c0,0.21-0.17,0.31-0.5,0.31c-0.36,0-0.58-0.15-0.65-0.45c-0.02-0.04-0.02-0.34-0.02-0.88
			c0-0.15-0.02-0.27-0.07-0.36c-0.84,0.62-1.75,0.92-2.72,0.92c-0.68,0-1.33-0.19-1.96-0.56c-0.72-0.42-1.08-0.95-1.08-1.58
			c0-0.61,0.43-1.21,1.28-1.8c0.78-0.54,1.5-0.81,2.16-0.81h2.23c0.09-0.09,0.14-0.25,0.14-0.47c0-1-0.08-1.76-0.25-2.27
			c-0.27-0.85-0.8-1.28-1.6-1.28c-0.57,0-1.1,0.36-1.58,1.08c-0.44,0.66-0.65,1.29-0.65,1.89c0,0.03,0,0.08,0,0.14s0,0.1,0,0.11
			c0,0.12-0.06,0.18-0.18,0.18c-0.15,0-0.32-0.09-0.5-0.27c-0.18-0.18-0.27-0.34-0.27-0.47c0-0.42,0.13-0.95,0.38-1.59
			c0.25-0.64,0.53-1.12,0.83-1.45c0.37-0.41,0.84-0.61,1.4-0.61c0.85,0,1.65,0.27,2.36,0.81c0.77,0.58,1.16,1.29,1.17,2.11
			L349.97,466.65z"/>
	</g>
	<g>
		<path class="st7" d="M285.53,474.74c0-2.25-0.82-3.38-2.46-3.38c-1.11,0-2.13,0.73-3.05,2.18c-0.83,1.3-1.24,2.54-1.24,3.71v1.98
			c-0.06,0,0.5,0,1.67,0c1.73,0,2.99-0.3,3.77-0.92C285.1,477.62,285.53,476.42,285.53,474.74z M287.12,481.96
			c0,0.46-0.11,0.88-0.32,1.24c-1.01,1.8-2.74,2.7-5.19,2.7c-0.77,0-1.74-0.15-2.91-0.45c0,0.03-0.01,0.06-0.02,0.09
			c0,0.05,0.03,0.19,0.09,0.43c-0.06,0.18-0.17,0.29-0.33,0.34l-0.18-0.09c-0.28,0.03-0.45-0.12-0.49-0.45
			c-0.05-0.48-0.09-0.74-0.12-0.78c-0.04-0.05-0.19-0.13-0.46-0.25c-0.21-0.09-0.31-0.22-0.31-0.4c0-0.22,0.11-0.35,0.33-0.37
			c0.22-0.02,0.33-0.07,0.35-0.15c0,0.02,0-0.1,0-0.36c0-0.25,0.01-0.66,0.03-1.21c0.02-0.55,0.03-0.97,0.03-1.25v-0.78
			c-0.33-0.1-0.49-0.25-0.49-0.42c0-0.22,0.14-0.41,0.43-0.56v-7.56c0-0.12,0.09-0.27,0.26-0.45c0.17-0.18,0.32-0.27,0.44-0.27
			c0.24,0,0.37,0.02,0.4,0.07c0.09,0.09,0.17,0.19,0.25,0.29c-0.24,1.38-0.36,2.37-0.36,2.97l0.02,0.14
			c1.02-2.62,2.54-3.94,4.57-3.94c1.17,0,2.06,0.45,2.68,1.35c0.55,0.8,0.83,1.79,0.83,2.99c0,0.9-0.21,1.78-0.63,2.66
			c-0.49,1.02-1.1,1.65-1.84,1.89C286.14,479.61,287.12,480.48,287.12,481.96z M286,481.83c0-0.82-0.8-1.35-2.39-1.6
			c-0.65-0.1-1.78-0.16-3.39-0.16c-0.63,0-1.14,0.04-1.51,0.14c-0.02,0.49-0.02,1.52-0.02,3.08c0,0.39,0.01,0.74,0.04,1.06
			c0.72,0.42,1.68,0.63,2.87,0.63c0.96,0,1.9-0.29,2.82-0.85C285.47,483.48,286,482.73,286,481.83z"/>
		<path class="st7" d="M294.14,483.04c0-0.6-0.47-0.9-1.4-0.9c-0.74,0-1.38,0.13-1.94,0.38c-0.71,0.33-1.06,0.83-1.06,1.48
			c0,0.4,0.19,0.72,0.56,0.94c0.32,0.19,0.69,0.29,1.12,0.29c0.65,0,1.26-0.21,1.83-0.63C293.86,484.2,294.14,483.67,294.14,483.04z
			 M295.34,486.62c0,0.21-0.17,0.31-0.5,0.31c-0.36,0-0.58-0.15-0.65-0.45c-0.02-0.04-0.02-0.34-0.02-0.88
			c0-0.15-0.02-0.27-0.07-0.36c-0.84,0.62-1.75,0.92-2.72,0.92c-0.68,0-1.33-0.19-1.96-0.56c-0.72-0.42-1.08-0.95-1.08-1.58
			c0-0.61,0.43-1.21,1.28-1.8c0.78-0.54,1.5-0.81,2.16-0.81h2.23c0.09-0.09,0.14-0.25,0.14-0.47c0-1-0.08-1.76-0.25-2.27
			c-0.27-0.85-0.8-1.28-1.6-1.28c-0.57,0-1.1,0.36-1.58,1.08c-0.44,0.66-0.65,1.29-0.65,1.89c0,0.03,0,0.08,0,0.14s0,0.1,0,0.11
			c0,0.12-0.06,0.18-0.18,0.18c-0.15,0-0.32-0.09-0.5-0.27c-0.18-0.18-0.27-0.34-0.27-0.47c0-0.42,0.13-0.95,0.38-1.59
			c0.25-0.64,0.53-1.12,0.83-1.45c0.37-0.41,0.84-0.61,1.4-0.61c0.85,0,1.65,0.27,2.36,0.81c0.77,0.58,1.16,1.29,1.17,2.11
			L295.34,486.62z"/>
		<path class="st7" d="M298.6,485.74c0,0.39-0.21,0.58-0.63,0.58c-0.66,0-0.98-1.36-0.97-4.07l0.07-10.1c0-0.17-0.02-0.4-0.07-0.71
			c-0.04-0.31-0.07-0.54-0.07-0.69c0.28-0.21,0.52-0.31,0.72-0.31c0.21,0,0.42,0.08,0.63,0.23c0.21,0.15,0.31,0.33,0.31,0.54
			c0,0.15-0.04,0.34-0.11,0.58c-0.09,0.3-0.14,0.49-0.16,0.56c-0.18,1.02-0.27,2.44-0.27,4.27c0,2.96-0.01,4.38-0.02,4.27
			c0.04,1.85,0.17,3.23,0.36,4.16c0,0.04,0.03,0.15,0.1,0.3C298.57,485.53,298.6,485.65,298.6,485.74z"/>
		<path class="st7" d="M304.76,479.6c0-0.52-0.15-1.02-0.45-1.47c-0.3-0.46-0.7-0.69-1.19-0.69c-0.6,0-1.09,0.38-1.46,1.12
			c-0.31,0.63-0.47,1.28-0.47,1.96c0,0.44,0.14,0.8,0.42,1.09c0.28,0.29,0.63,0.44,1.07,0.44c0.62,0,1.12-0.26,1.53-0.79
			C304.58,480.78,304.76,480.23,304.76,479.6z M306.32,483.74c0,0.66-0.44,1.25-1.33,1.78c-0.8,0.48-1.55,0.72-2.25,0.72
			c-2.01,0-3.02-1.27-3.02-3.83c0-1.12,0.2-2.33,0.61-3.62c0.53-1.68,1.23-2.52,2.07-2.52c0.72,0,1.51,0.36,2.36,1.09
			c0.85,0.73,1.28,1.45,1.28,2.17c0,0.93-0.38,1.74-1.12,2.43s-1.6,1.03-2.54,1.03c-0.09,0-0.28-0.07-0.57-0.22s-0.49-0.23-0.6-0.23
			c-0.19,0-0.29,0.06-0.29,0.18c0,1.73,0.57,2.59,1.71,2.59c0.58,0,1.12-0.19,1.62-0.58c0.3-0.23,0.63-0.58,0.99-1.06
			c0.28-0.38,0.47-0.56,0.56-0.56C306.14,483.11,306.32,483.32,306.32,483.74z"/>
		<path class="st7" d="M314.46,486.08c-0.08,0.17-0.21,0.25-0.36,0.25c-0.16,0-0.41-0.1-0.76-0.31v-0.18c0-0.14,0-0.34,0-0.61
			s0-0.46,0-0.58c0-4.98-0.62-7.47-1.86-7.47c-0.39,0-0.81,0.29-1.25,0.85c-1.13,1.41-1.7,3.19-1.7,5.33c0,0.29,0.04,0.7,0.12,1.25
			c0.08,0.55,0.12,0.96,0.12,1.25c0,0.22-0.15,0.34-0.46,0.34c-0.58,0-0.87-0.47-0.87-1.42v-5.11c0-0.14,0.01-0.33,0.02-0.58
			c0.02-0.25,0.02-0.45,0.02-0.59c0-0.19-0.03-0.48-0.08-0.85c-0.05-0.37-0.08-0.65-0.08-0.83c0-0.12,0.09-0.26,0.28-0.42
			s0.33-0.24,0.44-0.24c0.19,0,0.37,0.1,0.54,0.31c-0.04,0.98-0.07,1.55-0.07,1.71c0,0.23,0.01,0.44,0.02,0.65
			c0.14-0.05,0.31-0.29,0.54-0.74c0.28-0.57,0.52-0.96,0.72-1.17c0.36-0.42,0.77-0.63,1.24-0.63c0.18,0,0.45,0.07,0.81,0.2
			c0.81,0.3,1.39,0.8,1.73,1.49c0.58,1.19,0.88,2.75,0.88,4.7V486.08z"/>
		<path class="st7" d="M322.65,483.63c0,0.36-0.31,0.85-0.92,1.46c-0.62,0.61-1.12,0.96-1.51,1.08c-0.53,0.16-0.96,0.25-1.3,0.25
			c-1.1,0-1.93-0.4-2.52-1.2c-0.53-0.71-0.81-1.62-0.81-2.75c0-1.16,0.25-2.45,0.74-3.88c0.61-1.77,1.38-2.66,2.29-2.66
			c0.43,0,1.01,0.21,1.73,0.64c0.72,0.43,1.13,0.84,1.21,1.23c0.11,0.47,0.16,0.92,0.16,1.37c0,1.65-0.25,2.48-0.74,2.48
			c-0.12,0-0.26-0.05-0.43-0.14c-0.17-0.09-0.25-0.19-0.25-0.31c0-0.06,0.03-0.14,0.09-0.24c0.06-0.1,0.1-0.16,0.11-0.19
			c0.06-0.19,0.09-0.65,0.09-1.35c0-1.67-0.38-2.5-1.12-2.5c-0.83,0-1.51,0.76-2.02,2.28c-0.4,1.17-0.58,2.29-0.58,3.34
			c0,0.81,0.12,1.49,0.38,2.03c0.34,0.71,0.88,1.06,1.6,1.06c0.43,0,0.94-0.23,1.53-0.68c0.52-0.41,0.91-0.84,1.17-1.29
			c0.06-0.15,0.15-0.36,0.27-0.64c0.08-0.11,0.18-0.16,0.31-0.16c0.09,0,0.2,0.1,0.33,0.31
			C322.59,483.37,322.65,483.53,322.65,483.63z"/>
		<path class="st7" d="M325.82,473.79c0,0.51-0.24,0.76-0.72,0.76c-0.29,0-0.55-0.1-0.79-0.31c-0.24-0.21-0.36-0.45-0.36-0.72
			c0-0.51,0.25-0.77,0.76-0.77c0.3,0,0.56,0.1,0.78,0.29C325.71,473.25,325.82,473.49,325.82,473.79z M325.4,477.17
			c0,0.27-0.06,0.67-0.19,1.21s-0.19,0.94-0.19,1.21v4.97c0,0.33,0.08,0.78,0.23,1.35c-0.06,0.12-0.14,0.18-0.25,0.18
			c-0.73,0-1.1-0.35-1.1-1.06v-8.26c0.19-0.1,0.38-0.16,0.56-0.16c0.18,0,0.36,0.06,0.56,0.16
			C325.26,476.9,325.4,477.02,325.4,477.17z"/>
		<path class="st7" d="M332.24,483.04c0-0.6-0.47-0.9-1.4-0.9c-0.74,0-1.38,0.13-1.94,0.38c-0.71,0.33-1.06,0.83-1.06,1.48
			c0,0.4,0.19,0.72,0.56,0.94c0.32,0.19,0.69,0.29,1.12,0.29c0.65,0,1.26-0.21,1.83-0.63C331.95,484.2,332.24,483.67,332.24,483.04z
			 M333.43,486.62c0,0.21-0.17,0.31-0.5,0.31c-0.36,0-0.58-0.15-0.65-0.45c-0.02-0.04-0.02-0.34-0.02-0.88
			c0-0.15-0.02-0.27-0.07-0.36c-0.84,0.62-1.75,0.92-2.72,0.92c-0.68,0-1.33-0.19-1.96-0.56c-0.72-0.42-1.08-0.95-1.08-1.58
			c0-0.61,0.43-1.21,1.28-1.8c0.78-0.54,1.5-0.81,2.16-0.81h2.23c0.09-0.09,0.14-0.25,0.14-0.47c0-1-0.08-1.76-0.25-2.27
			c-0.27-0.85-0.8-1.28-1.6-1.28c-0.57,0-1.1,0.36-1.58,1.08c-0.44,0.66-0.65,1.29-0.65,1.89c0,0.03,0,0.08,0,0.14s0,0.1,0,0.11
			c0,0.12-0.06,0.18-0.18,0.18c-0.15,0-0.32-0.09-0.5-0.27c-0.18-0.18-0.27-0.34-0.27-0.47c0-0.42,0.13-0.95,0.38-1.59
			c0.25-0.64,0.53-1.12,0.83-1.45c0.37-0.41,0.84-0.61,1.4-0.61c0.85,0,1.65,0.27,2.36,0.81c0.77,0.58,1.16,1.29,1.17,2.11
			L333.43,486.62z"/>
		<path class="st7" d="M340.27,480.45c0-0.31-0.11-0.58-0.34-0.79c-0.04-0.63-0.2-1.17-0.47-1.62c-0.34-0.56-0.81-0.83-1.4-0.83
			c-0.4,0-0.81,0.46-1.21,1.37c-0.3,0.69-0.5,1.33-0.61,1.94c-0.15,0.9-0.23,1.67-0.23,2.29c0,1.84,0.53,2.77,1.6,2.77
			c0.81,0,1.5-0.67,2.03-2.03C340.07,482.47,340.27,481.43,340.27,480.45z M341.62,479.22c0,0.09-0.01,0.22-0.02,0.38
			c-0.31,1.5-0.47,2.71-0.47,3.62c0,0.47,0.02,1.18,0.07,2.14c0.04,0.96,0.07,1.68,0.07,2.16c0,0.93-0.07,1.61-0.22,2.02
			c-0.18,0.5-0.53,0.91-1.04,1.24c-0.51,0.33-1.04,0.5-1.58,0.5c-0.63,0-1.36-0.14-2.18-0.41c-1.05-0.34-1.58-0.73-1.58-1.19
			c0-0.4,0.16-0.61,0.47-0.61c0.13,0,0.25,0.09,0.36,0.27c0.15,0.26,0.25,0.4,0.29,0.43c0.12,0.12,0.43,0.22,0.92,0.34
			c0.45,0.11,0.79,0.18,1.01,0.18c0.84,0,1.47-0.33,1.91-0.99c0.37-0.56,0.56-1.28,0.56-2.18c0-0.96-0.08-1.72-0.25-2.29
			c-0.72,0.94-1.58,1.42-2.59,1.42c-0.3,0-0.65-0.1-1.06-0.3c-0.41-0.2-0.71-0.42-0.9-0.66c-0.41-0.48-0.61-1.24-0.61-2.27
			c0-1.27,0.23-2.65,0.7-4.12c0.6-1.9,1.39-2.86,2.36-2.86c0.78,0,1.6,0.71,2.48,2.11c0.09,0.17,0.23,0.38,0.43,0.65
			C340.96,478.85,341.24,478.99,341.62,479.22z"/>
		<path class="st7" d="M348.21,483.04c0-0.6-0.47-0.9-1.4-0.9c-0.74,0-1.38,0.13-1.94,0.38c-0.71,0.33-1.06,0.83-1.06,1.48
			c0,0.4,0.19,0.72,0.56,0.94c0.32,0.19,0.69,0.29,1.12,0.29c0.65,0,1.26-0.21,1.83-0.63C347.92,484.2,348.21,483.67,348.21,483.04z
			 M349.4,486.62c0,0.21-0.17,0.31-0.5,0.31c-0.36,0-0.58-0.15-0.65-0.45c-0.02-0.04-0.02-0.34-0.02-0.88
			c0-0.15-0.02-0.27-0.07-0.36c-0.84,0.62-1.75,0.92-2.72,0.92c-0.68,0-1.33-0.19-1.96-0.56c-0.72-0.42-1.08-0.95-1.08-1.58
			c0-0.61,0.43-1.21,1.28-1.8c0.78-0.54,1.5-0.81,2.16-0.81h2.23c0.09-0.09,0.14-0.25,0.14-0.47c0-1-0.08-1.76-0.25-2.27
			c-0.27-0.85-0.8-1.28-1.6-1.28c-0.57,0-1.1,0.36-1.58,1.08c-0.44,0.66-0.65,1.29-0.65,1.89c0,0.03,0,0.08,0,0.14s0,0.1,0,0.11
			c0,0.12-0.06,0.18-0.18,0.18c-0.15,0-0.32-0.09-0.5-0.27c-0.18-0.18-0.27-0.34-0.27-0.47c0-0.42,0.13-0.95,0.38-1.59
			c0.25-0.64,0.53-1.12,0.83-1.45c0.37-0.41,0.84-0.61,1.4-0.61c0.85,0,1.65,0.27,2.36,0.81c0.77,0.58,1.16,1.29,1.17,2.11
			L349.4,486.62z"/>
	</g>
	<g>
		<path class="st8" d="M284.96,494.71c0-2.25-0.82-3.38-2.46-3.38c-1.11,0-2.13,0.73-3.05,2.18c-0.83,1.3-1.24,2.54-1.24,3.71v1.98
			c-0.06,0,0.5,0,1.67,0c1.73,0,2.99-0.31,3.77-0.92C284.53,497.58,284.96,496.39,284.96,494.71z M286.56,501.93
			c0,0.46-0.11,0.88-0.32,1.24c-1.01,1.8-2.74,2.7-5.19,2.7c-0.77,0-1.74-0.15-2.91-0.45c0,0.03-0.01,0.06-0.02,0.09
			c0,0.05,0.03,0.19,0.09,0.43c-0.06,0.18-0.17,0.29-0.33,0.34l-0.18-0.09c-0.28,0.03-0.44-0.12-0.49-0.45
			c-0.04-0.48-0.09-0.74-0.12-0.78c-0.04-0.04-0.19-0.13-0.46-0.25c-0.21-0.09-0.31-0.22-0.31-0.4c0-0.22,0.11-0.35,0.33-0.37
			c0.22-0.02,0.33-0.07,0.35-0.15c0,0.02,0-0.1,0-0.36c0-0.25,0.01-0.66,0.03-1.21c0.02-0.55,0.03-0.97,0.03-1.25v-0.78
			c-0.33-0.1-0.49-0.25-0.49-0.42c0-0.22,0.14-0.41,0.43-0.56v-7.56c0-0.12,0.09-0.27,0.26-0.45c0.17-0.18,0.32-0.27,0.44-0.27
			c0.24,0,0.37,0.02,0.4,0.07c0.09,0.09,0.17,0.19,0.25,0.29c-0.24,1.38-0.36,2.37-0.36,2.97l0.02,0.14
			c1.02-2.62,2.54-3.94,4.57-3.94c1.17,0,2.06,0.45,2.68,1.35c0.56,0.79,0.83,1.79,0.83,2.99c0,0.9-0.21,1.79-0.63,2.66
			c-0.48,1.02-1.1,1.65-1.84,1.89C285.58,499.58,286.56,500.45,286.56,501.93z M285.44,501.8c0-0.82-0.8-1.36-2.39-1.6
			c-0.65-0.1-1.78-0.16-3.39-0.16c-0.63,0-1.14,0.04-1.51,0.14c-0.02,0.49-0.02,1.52-0.02,3.08c0,0.39,0.01,0.74,0.04,1.06
			c0.72,0.42,1.68,0.63,2.87,0.63c0.96,0,1.9-0.28,2.82-0.85C284.91,503.46,285.44,502.7,285.44,501.8z"/>
		<path class="st8" d="M293.58,503.01c0-0.6-0.47-0.9-1.4-0.9c-0.74,0-1.38,0.13-1.94,0.38c-0.71,0.33-1.06,0.83-1.06,1.48
			c0,0.4,0.19,0.72,0.56,0.94c0.31,0.2,0.69,0.29,1.12,0.29c0.65,0,1.26-0.21,1.83-0.63C293.29,504.17,293.58,503.64,293.58,503.01z
			 M294.77,506.59c0,0.21-0.17,0.31-0.5,0.31c-0.36,0-0.58-0.15-0.65-0.45c-0.02-0.04-0.02-0.34-0.02-0.88
			c0-0.15-0.02-0.27-0.07-0.36c-0.84,0.62-1.75,0.92-2.72,0.92c-0.68,0-1.33-0.19-1.96-0.56c-0.72-0.42-1.08-0.95-1.08-1.58
			c0-0.61,0.43-1.21,1.28-1.8c0.78-0.54,1.5-0.81,2.16-0.81h2.23c0.09-0.09,0.14-0.25,0.14-0.47c0-1-0.08-1.76-0.25-2.27
			c-0.27-0.85-0.8-1.28-1.6-1.28c-0.57,0-1.1,0.36-1.58,1.08c-0.44,0.66-0.65,1.29-0.65,1.89c0,0.03,0,0.08,0,0.14s0,0.1,0,0.11
			c0,0.12-0.06,0.18-0.18,0.18c-0.15,0-0.32-0.09-0.5-0.27c-0.18-0.18-0.27-0.34-0.27-0.47c0-0.42,0.13-0.95,0.38-1.59
			c0.25-0.64,0.53-1.12,0.83-1.45c0.38-0.4,0.84-0.61,1.4-0.61c0.85,0,1.64,0.27,2.36,0.81c0.77,0.58,1.16,1.29,1.17,2.11
			L294.77,506.59z"/>
		<path class="st8" d="M298.04,505.71c0,0.39-0.21,0.58-0.63,0.58c-0.66,0-0.98-1.36-0.97-4.07l0.07-10.1c0-0.17-0.02-0.4-0.07-0.71
			c-0.04-0.31-0.07-0.54-0.07-0.69c0.28-0.21,0.52-0.31,0.72-0.31c0.21,0,0.42,0.08,0.63,0.23c0.21,0.15,0.31,0.33,0.31,0.54
			c0,0.15-0.04,0.35-0.11,0.58c-0.09,0.3-0.14,0.49-0.16,0.56c-0.18,1.02-0.27,2.44-0.27,4.27c0,2.96-0.01,4.38-0.02,4.27
			c0.04,1.85,0.17,3.23,0.36,4.16c0,0.04,0.03,0.15,0.1,0.3C298,505.5,298.04,505.62,298.04,505.71z"/>
		<path class="st8" d="M304.2,499.57c0-0.52-0.15-1.02-0.45-1.47c-0.3-0.46-0.7-0.69-1.19-0.69c-0.6,0-1.09,0.38-1.46,1.12
			c-0.31,0.63-0.47,1.28-0.47,1.96c0,0.44,0.14,0.8,0.42,1.09c0.28,0.29,0.63,0.44,1.07,0.44c0.62,0,1.12-0.26,1.53-0.79
			C304.01,500.75,304.2,500.2,304.2,499.57z M305.75,503.71c0,0.66-0.44,1.25-1.33,1.78c-0.8,0.48-1.55,0.72-2.25,0.72
			c-2.01,0-3.02-1.27-3.02-3.83c0-1.12,0.2-2.33,0.61-3.62c0.54-1.68,1.23-2.52,2.07-2.52c0.72,0,1.51,0.36,2.36,1.09
			c0.85,0.73,1.28,1.45,1.28,2.17c0,0.93-0.38,1.74-1.12,2.43s-1.6,1.03-2.54,1.03c-0.09,0-0.28-0.07-0.57-0.22s-0.49-0.23-0.6-0.23
			c-0.19,0-0.29,0.06-0.29,0.18c0,1.73,0.57,2.59,1.71,2.59c0.58,0,1.12-0.19,1.62-0.58c0.3-0.23,0.63-0.58,0.99-1.06
			c0.28-0.38,0.47-0.56,0.56-0.56C305.58,503.08,305.75,503.29,305.75,503.71z"/>
		<path class="st8" d="M313.9,506.05c-0.08,0.17-0.21,0.25-0.36,0.25c-0.16,0-0.41-0.1-0.76-0.31v-0.18c0-0.14,0-0.34,0-0.61
			s0-0.46,0-0.58c0-4.98-0.62-7.47-1.86-7.47c-0.39,0-0.81,0.29-1.25,0.85c-1.13,1.41-1.7,3.19-1.7,5.33c0,0.29,0.04,0.7,0.12,1.25
			c0.08,0.55,0.12,0.96,0.12,1.25c0,0.22-0.15,0.34-0.46,0.34c-0.58,0-0.87-0.47-0.87-1.42v-5.11c0-0.14,0.01-0.33,0.02-0.58
			c0.02-0.25,0.02-0.45,0.02-0.59c0-0.19-0.03-0.48-0.08-0.85c-0.05-0.37-0.08-0.65-0.08-0.83c0-0.12,0.09-0.26,0.28-0.42
			s0.33-0.24,0.44-0.24c0.19,0,0.37,0.1,0.54,0.31c-0.04,0.98-0.07,1.55-0.07,1.71c0,0.23,0.01,0.44,0.02,0.65
			c0.14-0.05,0.31-0.29,0.54-0.74c0.28-0.57,0.52-0.96,0.72-1.17c0.36-0.42,0.77-0.63,1.24-0.63c0.18,0,0.45,0.07,0.81,0.2
			c0.81,0.3,1.39,0.8,1.73,1.49c0.58,1.19,0.88,2.75,0.88,4.7V506.05z"/>
		<path class="st8" d="M322.09,503.6c0,0.36-0.31,0.85-0.92,1.46c-0.62,0.61-1.12,0.97-1.51,1.08c-0.52,0.17-0.96,0.25-1.3,0.25
			c-1.1,0-1.94-0.4-2.52-1.2c-0.54-0.71-0.81-1.62-0.81-2.75c0-1.16,0.25-2.45,0.74-3.88c0.61-1.77,1.38-2.66,2.29-2.66
			c0.43,0,1.01,0.21,1.73,0.64c0.72,0.43,1.12,0.84,1.21,1.23c0.1,0.47,0.16,0.92,0.16,1.37c0,1.65-0.25,2.48-0.74,2.48
			c-0.12,0-0.26-0.05-0.43-0.14c-0.17-0.09-0.25-0.19-0.25-0.31c0-0.06,0.03-0.14,0.09-0.24c0.06-0.1,0.1-0.16,0.11-0.19
			c0.06-0.19,0.09-0.65,0.09-1.35c0-1.67-0.38-2.5-1.12-2.5c-0.83,0-1.5,0.76-2.02,2.28c-0.39,1.17-0.58,2.29-0.58,3.34
			c0,0.81,0.13,1.49,0.38,2.03c0.34,0.71,0.88,1.06,1.6,1.06c0.43,0,0.94-0.23,1.53-0.68c0.52-0.41,0.91-0.84,1.17-1.29
			c0.06-0.15,0.15-0.36,0.27-0.64c0.08-0.11,0.18-0.16,0.31-0.16c0.09,0,0.2,0.1,0.33,0.31C322.02,503.34,322.09,503.5,322.09,503.6
			z"/>
		<path class="st8" d="M325.26,493.76c0,0.51-0.24,0.76-0.72,0.76c-0.29,0-0.55-0.1-0.79-0.31c-0.24-0.21-0.36-0.45-0.36-0.72
			c0-0.51,0.25-0.77,0.76-0.77c0.3,0,0.56,0.1,0.78,0.29C325.15,493.22,325.26,493.47,325.26,493.76z M324.83,497.14
			c0,0.27-0.06,0.67-0.19,1.21s-0.19,0.94-0.19,1.21v4.97c0,0.33,0.08,0.78,0.23,1.35c-0.06,0.12-0.14,0.18-0.25,0.18
			c-0.73,0-1.1-0.35-1.1-1.06v-8.26c0.19-0.1,0.38-0.16,0.56-0.16c0.18,0,0.37,0.05,0.56,0.16
			C324.71,496.86,324.83,496.99,324.83,497.14z"/>
		<path class="st8" d="M331.67,503.01c0-0.6-0.47-0.9-1.4-0.9c-0.74,0-1.38,0.13-1.94,0.38c-0.71,0.33-1.06,0.83-1.06,1.48
			c0,0.4,0.19,0.72,0.56,0.94c0.31,0.2,0.69,0.29,1.12,0.29c0.65,0,1.26-0.21,1.83-0.63C331.38,504.17,331.67,503.64,331.67,503.01z
			 M332.87,506.59c0,0.21-0.17,0.31-0.5,0.31c-0.36,0-0.58-0.15-0.65-0.45c-0.02-0.04-0.02-0.34-0.02-0.88
			c0-0.15-0.02-0.27-0.07-0.36c-0.84,0.62-1.75,0.92-2.72,0.92c-0.68,0-1.33-0.19-1.96-0.56c-0.72-0.42-1.08-0.95-1.08-1.58
			c0-0.61,0.43-1.21,1.28-1.8c0.78-0.54,1.5-0.81,2.16-0.81h2.23c0.09-0.09,0.14-0.25,0.14-0.47c0-1-0.08-1.76-0.25-2.27
			c-0.27-0.85-0.8-1.28-1.6-1.28c-0.57,0-1.1,0.36-1.58,1.08c-0.44,0.66-0.65,1.29-0.65,1.89c0,0.03,0,0.08,0,0.14s0,0.1,0,0.11
			c0,0.12-0.06,0.18-0.18,0.18c-0.15,0-0.32-0.09-0.5-0.27c-0.18-0.18-0.27-0.34-0.27-0.47c0-0.42,0.13-0.95,0.38-1.59
			c0.25-0.64,0.53-1.12,0.83-1.45c0.38-0.4,0.84-0.61,1.4-0.61c0.85,0,1.64,0.27,2.36,0.81c0.77,0.58,1.16,1.29,1.17,2.11
			L332.87,506.59z"/>
		<path class="st8" d="M339.71,500.42c0-0.31-0.11-0.58-0.34-0.79c-0.04-0.63-0.2-1.17-0.47-1.62c-0.35-0.55-0.81-0.83-1.4-0.83
			c-0.4,0-0.81,0.46-1.21,1.37c-0.3,0.69-0.5,1.33-0.61,1.94c-0.15,0.9-0.23,1.67-0.23,2.29c0,1.84,0.53,2.77,1.6,2.77
			c0.81,0,1.49-0.68,2.03-2.03C339.5,502.43,339.71,501.4,339.71,500.42z M341.06,499.19c0,0.09-0.01,0.22-0.02,0.38
			c-0.31,1.5-0.47,2.71-0.47,3.62c0,0.47,0.02,1.18,0.07,2.14c0.04,0.96,0.07,1.68,0.07,2.16c0,0.93-0.08,1.6-0.22,2.02
			c-0.18,0.49-0.53,0.91-1.04,1.24c-0.51,0.33-1.04,0.5-1.58,0.5c-0.63,0-1.36-0.14-2.18-0.41c-1.05-0.33-1.58-0.73-1.58-1.19
			c0-0.4,0.16-0.61,0.47-0.61c0.13,0,0.25,0.09,0.36,0.27c0.15,0.25,0.25,0.4,0.29,0.43c0.12,0.12,0.43,0.23,0.92,0.34
			c0.45,0.12,0.79,0.18,1.01,0.18c0.84,0,1.48-0.33,1.91-0.99c0.37-0.56,0.56-1.28,0.56-2.18c0-0.96-0.08-1.72-0.25-2.29
			c-0.72,0.94-1.58,1.42-2.59,1.42c-0.3,0-0.65-0.1-1.06-0.3c-0.41-0.2-0.71-0.42-0.9-0.66c-0.41-0.48-0.61-1.24-0.61-2.27
			c0-1.27,0.23-2.65,0.7-4.12c0.6-1.9,1.39-2.86,2.36-2.86c0.78,0,1.6,0.71,2.48,2.11c0.09,0.17,0.23,0.38,0.43,0.65
			C340.4,498.82,340.68,498.96,341.06,499.19z"/>
		<path class="st8" d="M347.65,503.01c0-0.6-0.47-0.9-1.4-0.9c-0.74,0-1.38,0.13-1.94,0.38c-0.71,0.33-1.06,0.83-1.06,1.48
			c0,0.4,0.19,0.72,0.56,0.94c0.31,0.2,0.69,0.29,1.12,0.29c0.65,0,1.26-0.21,1.83-0.63C347.36,504.17,347.65,503.64,347.65,503.01z
			 M348.84,506.59c0,0.21-0.17,0.31-0.5,0.31c-0.36,0-0.58-0.15-0.65-0.45c-0.02-0.04-0.02-0.34-0.02-0.88
			c0-0.15-0.02-0.27-0.07-0.36c-0.84,0.62-1.75,0.92-2.72,0.92c-0.68,0-1.33-0.19-1.96-0.56c-0.72-0.42-1.08-0.95-1.08-1.58
			c0-0.61,0.43-1.21,1.28-1.8c0.78-0.54,1.5-0.81,2.16-0.81h2.23c0.09-0.09,0.14-0.25,0.14-0.47c0-1-0.08-1.76-0.25-2.27
			c-0.27-0.85-0.8-1.28-1.6-1.28c-0.57,0-1.1,0.36-1.58,1.08c-0.44,0.66-0.65,1.29-0.65,1.89c0,0.03,0,0.08,0,0.14s0,0.1,0,0.11
			c0,0.12-0.06,0.18-0.18,0.18c-0.15,0-0.32-0.09-0.5-0.27c-0.18-0.18-0.27-0.34-0.27-0.47c0-0.42,0.13-0.95,0.38-1.59
			c0.25-0.64,0.53-1.12,0.83-1.45c0.38-0.4,0.84-0.61,1.4-0.61c0.85,0,1.64,0.27,2.36,0.81c0.77,0.58,1.16,1.29,1.17,2.11
			L348.84,506.59z"/>
	</g>
</g>
<rect x="148.87" y="646.83" class="st4" width="341.79" height="43.33"/>
<text transform="matrix(1 0 0 1 148.8732 667.305)" class="st9 st10">BALENCY BARRY- QuackStar #1</text>
<g>
	<g>
		<path class="st3" d="M265.44,383.02c3.22,0,3.22-5,0-5C262.23,378.02,262.22,383.02,265.44,383.02L265.44,383.02z"/>
	</g>
</g>
<g>
	<g>
		<path class="st3" d="M267.42,381.69c3.22,0,3.22-5,0-5C264.21,376.69,264.2,381.69,267.42,381.69L267.42,381.69z"/>
	</g>
</g>
<g>
	<g>
		<path class="st3" d="M265.44,383.02c3.22,0,3.22-5,0-5C262.23,378.02,262.22,383.02,265.44,383.02L265.44,383.02z"/>
	</g>
</g>
<g>
	<g>
		<path class="st3" d="M262.8,382.46c0.8,0,0.81-1.25,0-1.25C262,381.21,261.99,382.46,262.8,382.46L262.8,382.46z"/>
	</g>
</g>
<g>
	<g>
		<path class="st3" d="M262.14,382.46c0.8,0,0.81-1.25,0-1.25C261.34,381.21,261.33,382.46,262.14,382.46L262.14,382.46z"/>
	</g>
</g>
<g>
	<g>
		<path class="st3" d="M261.93,382.24c0.44,0.33,1.07,0.37,1.57,0.2c0.51-0.17,1-0.53,1.23-1.03c0.07-0.14,0.13-0.29,0.15-0.44
			c0.04-0.23,0.03-0.41,0-0.64c-0.02-0.14-0.17-0.3-0.29-0.37c-0.13-0.08-0.33-0.11-0.48-0.06c-0.15,0.05-0.3,0.14-0.37,0.29
			c-0.08,0.16-0.09,0.31-0.06,0.48c0,0.01,0,0.02,0,0.02c-0.01-0.06-0.01-0.11-0.02-0.17c0.01,0.08,0.01,0.17,0,0.25
			c0.01-0.06,0.01-0.11,0.02-0.17c-0.01,0.1-0.04,0.19-0.08,0.28c0.02-0.05,0.04-0.1,0.06-0.15c-0.04,0.1-0.1,0.19-0.16,0.27
			c0.03-0.04,0.07-0.08,0.1-0.13c-0.08,0.1-0.16,0.19-0.26,0.26c0.04-0.03,0.08-0.07,0.13-0.1c-0.11,0.09-0.23,0.16-0.36,0.21
			c0.05-0.02,0.1-0.04,0.15-0.06c-0.12,0.05-0.23,0.08-0.36,0.1c0.06-0.01,0.11-0.01,0.17-0.02c-0.11,0.01-0.23,0.02-0.34,0
			c0.06,0.01,0.11,0.01,0.17,0.02c-0.09-0.01-0.18-0.04-0.26-0.07c0.05,0.02,0.1,0.04,0.15,0.06c-0.08-0.03-0.15-0.08-0.22-0.13
			c-0.12-0.09-0.34-0.1-0.48-0.06c-0.14,0.04-0.3,0.15-0.37,0.29c-0.08,0.15-0.12,0.32-0.06,0.48
			C261.7,382.03,261.79,382.13,261.93,382.24L261.93,382.24z"/>
	</g>
</g>
<g>
	<g>
		<path class="st3" d="M263.46,380.48c0.8,0,0.81-1.25,0-1.25C262.66,379.23,262.65,380.48,263.46,380.48L263.46,380.48z"/>
	</g>
</g>
<g>
	<g>
		<path class="st3" d="M263.46,380.48c0.8,0,0.81-1.25,0-1.25C262.66,379.23,262.65,380.48,263.46,380.48L263.46,380.48z"/>
	</g>
</g>
<g>
	<g>
		<path class="st3" d="M263.15,379.98c-0.44,0.22-0.88,0.44-1.32,0.66c-0.13,0.07-0.25,0.23-0.29,0.37
			c-0.04,0.15-0.02,0.35,0.06,0.48c0.09,0.13,0.21,0.25,0.37,0.29c0.17,0.04,0.32,0.02,0.48-0.06c0.44-0.22,0.88-0.44,1.32-0.66
			c0.13-0.07,0.25-0.23,0.29-0.37c0.04-0.15,0.02-0.35-0.06-0.48c-0.09-0.13-0.21-0.25-0.37-0.29
			C263.46,379.87,263.3,379.9,263.15,379.98L263.15,379.98z"/>
	</g>
</g>
<g>
	<g>
		<path class="st3" d="M260.82,382.46c0.8,0,0.81-1.25,0-1.25C260.01,381.21,260.01,382.46,260.82,382.46L260.82,382.46z"/>
	</g>
</g>
<g>
	<g>
		<path class="st3" d="M260.82,382.46c0.8,0,0.81-1.25,0-1.25C260.01,381.21,260.01,382.46,260.82,382.46L260.82,382.46z"/>
	</g>
</g>
<g>
	<g>
		<path class="st3" d="M260.82,383.12c0.8,0,0.81-1.25,0-1.25C260.01,381.87,260.01,383.12,260.82,383.12L260.82,383.12z"/>
	</g>
</g>
<g>
	<g>
		<path class="st3" d="M260.82,383.12c0.8,0,0.81-1.25,0-1.25C260.01,381.87,260.01,383.12,260.82,383.12L260.82,383.12z"/>
	</g>
</g>
<g>
	<g>
		<path class="st3" d="M260.82,383.78c0.8,0,0.81-1.25,0-1.25C260.01,382.53,260.01,383.78,260.82,383.78L260.82,383.78z"/>
	</g>
</g>
<g>
	<g>
		<path class="st3" d="M260.16,383.78c0.8,0,0.81-1.25,0-1.25C259.35,382.53,259.35,383.78,260.16,383.78L260.16,383.78z"/>
	</g>
</g>
<g>
	<g>
		<path class="st3" d="M260.16,383.78c0.8,0,0.81-1.25,0-1.25C259.35,382.53,259.35,383.78,260.16,383.78L260.16,383.78z"/>
	</g>
</g>
<g>
	<g>
		<path class="st3" d="M261.48,383.78c0.8,0,0.81-1.25,0-1.25C260.67,382.53,260.67,383.78,261.48,383.78L261.48,383.78z"/>
	</g>
</g>
<g>
	<g>
		<path class="st3" d="M264.99,378.4c-4.29,2.54-7.11,6.9-7.74,11.84c-0.04,0.34,0.32,0.62,0.62,0.62c12.36,0.33,24.72,0.67,37.09,1
			c0.69,0.02,0.87-1.11,0.17-1.23c-1.64-0.26-3.29-0.53-4.93-0.79c-0.06,0.41-0.11,0.82-0.17,1.23c1.49-0.03,2.98-0.06,4.47-0.09
			c0-0.42,0-0.83,0-1.25c-11.98,0.58-23.98,0.61-35.96,0.1c-0.54-0.02-0.82,0.7-0.44,1.07c0.8,0.77,1.8,0.77,2.83,0.47
			c0.57-0.16,1.1-0.46,1.69-0.55c0.35-0.05,1.06-0.14,1.31,0.17c-0.29-0.34-0.4,0.82-0.16,0.48c-0.18,0.1-0.36,0.21-0.54,0.31
			c1.63-0.02,3.26-0.05,4.9-0.07c0.8-0.01,0.81-1.25,0-1.25c-3.05,0-6.09,0-9.14,0c0,0.42,0,0.83,0,1.25
			c15.05-0.14,30.11,0.13,45.16,0.28c0-0.42,0-0.83,0-1.25c-1.53,0.03-3.06,0.06-4.59,0.09c0,0.42,0,0.83,0,1.25
			c10.8-0.4,21.6-0.81,32.4-1.21c0-0.42,0-0.83,0-1.25c-11.27,1.32-22.63,1.77-33.97,1.36c0,0.42,0,0.83,0,1.25
			c9.58-0.56,19.18-0.76,28.77-0.61c0-0.42,0-0.83,0-1.25c-10,0.8-20.05,0.88-30.06,0.23c0,0.42,0,0.83,0,1.25
			c11.24-0.14,22.47-0.27,33.71-0.41c0-0.42,0-0.83,0-1.25c-3.07,0.08-6.13,0.15-9.2,0.23c0,0.42,0,0.83,0,1.25
			c8.85-0.32,17.69-0.65,26.54-0.97c0-0.42,0-0.83,0-1.25c-2.07,0.1-4.13,0.21-6.2,0.31c0.06,0.41,0.11,0.82,0.17,1.23
			c1.24-0.45,2.48-0.89,3.72-1.34c0.64-0.23,0.57-1.23-0.17-1.23c-2.97,0.02-5.93,0.04-8.9,0.06c-0.81,0.01-0.8,1.23,0,1.25
			c1.06,0.03,2.12,0.06,3.17,0.09c0.77,0.02,1.59,0.21,2.28-0.18c1.02-0.58,1.77-1.61,2.2-2.68c0.88-2.17,0.58-4.9-1.11-6.6
			c-3.62-3.64-10.71-0.31-9.89,4.86c0.48,3.01,3.33,5.46,6.4,5.22c-0.06-0.41-0.11-0.82-0.17-1.23c-7.74,1.21-15.57,1.74-23.41,1.62
			c0,0.42,0,0.83,0,1.25c9.17-0.28,18.33-0.57,27.5-0.85c4.54-0.14,9.08-0.26,13.63-0.42c1.73-0.06,3.56-0.14,5.09-1.05
			c0.29-0.17,0.56-0.39,0.85-0.57c0.38-0.25,1.03-0.36,1.35-0.61c0.29-0.22-0.15,0.05-0.32,0.04c-0.23-0.01-0.8-0.09-0.75-0.46
			c-0.31,0.12-0.61,0.25-0.92,0.37c2.53,1.23,5.64-2.37,3.56-4.53c-2.1-2.17-5.76,0.8-4.66,3.38c0.28,0.65,1.35,0.19,1.14-0.48
			c-0.59-1.92-2.14-3.16-4.12-3.41c-0.71-0.09-0.82,1.04-0.17,1.23c1.47,0.42,2.94,0.84,4.42,1.26c0.72,0.2,1.04-0.75,0.48-1.14
			c-2.2-1.57-4.79-2.35-7.49-2.28c-0.8,0.02-0.81,1.27,0,1.25c2.57-0.05,4.94,0.9,6.76,2.71c0.2-0.35,0.41-0.7,0.61-1.04
			c-5.93-2.02-11.64-4.6-17.07-7.73c-0.05,0.38-0.1,0.76-0.15,1.14c5.53-1.02,11.27,1.09,14.92,5.35c0.2-0.35,0.41-0.7,0.61-1.04
			c-7.79-3.18-15.21-7.21-22.13-11.99c-0.16,0.38-0.32,0.76-0.48,1.14c1.79,0.73,3.59,1.46,5.38,2.19c0.65,0.27,1.11-0.83,0.48-1.14
			c-3.11-1.55-5.65-3.9-7.42-6.9c-0.29,0.29-0.57,0.57-0.86,0.86c2.63,1.15,5.04,2.67,7.2,4.56c0.2-0.35,0.41-0.7,0.61-1.04
			c-5.95-1.7-11.15-5.41-14.68-10.49c-0.33,0.25-0.65,0.5-0.98,0.76c6.07,4.96,12.5,9.48,19.23,13.5c0.11-0.39,0.21-0.78,0.32-1.16
			c-3.36-0.03-6.5-1.33-8.91-3.68c-0.2,0.35-0.41,0.7-0.61,1.04c3.47,0.91,6.75,2.31,9.82,4.19c0.11-0.39,0.21-0.78,0.32-1.16
			c-12.08,0.15-18.94-11.46-24.03-20.72c-0.36,0.21-0.72,0.42-1.08,0.63c0.51,0.86,1.29,1.27,2.21,1.58
			c0.55,0.18,1.13,0.29,1.63,0.6c0.29,0.18,0.96,0.75,0.84,1.2c-0.08-0.02-0.16-0.05-0.24-0.07c-0.19-0.21-0.26-0.16-0.22,0.14
			c-0.31-0.12-0.61-0.25-0.92-0.37c0.99,5.36,0.73,10.84-0.71,16.1c-0.16,0.59,0.61,1.07,1.04,0.61c1-1.06,0.01-2.23-1.17-2.53
			c-2.1-0.53-2.77,2.14-4.64,2.03c0.2,0.26,0.4,0.53,0.6,0.79c0.22-0.91,0.45-1.81,0.67-2.72c-0.4,0-0.8,0-1.21,0
			c1.32,3.2,1.51,6.73,0.58,10.06c-0.45,1.63-1.16,3.17-2.1,4.57c-0.49,0.73-1.06,1.5-1.73,2.09c-0.72,0.64-1.88,0.54-2.81,0.66
			c-0.77,0.1-0.83,1.25,0,1.25c1.52,0,3.04,0,4.56,0c0.8,0,0.81-1.25,0-1.25c-2.19,0-4.37,0-6.56,0c-0.81,0-0.8,1.22,0,1.25
			c1.23,0.05,2.47,0.09,3.7,0.14c0-0.42,0-0.83,0-1.25c-2.14,0.17-4.29,0.34-6.43,0.5c-0.79,0.06-0.82,1.25,0,1.25
			c8.64-0.04,17.28-0.08,25.92-0.11c0.83,0,0.78-1.16,0-1.25c-8.07-0.99-16.04-2.68-23.81-5.06c-3.8-1.16-7.62-2.42-11.27-4
			c-1.39-0.6-2.84-1.35-3.84-2.51c-1.3-1.51-0.96-3.05-0.45-4.81c0.56-1.92,0.2-3.53-0.22-5.43c-0.25-1.1-0.45-2.22,0.14-3.25
			c0.48-0.84,1.43-1.63,2.37-1c-0.04-0.33-0.08-0.65-0.13-0.98c-1.81,1.85-4.22,2.78-6.81,2.65c0.15,0.36,0.29,0.71,0.44,1.07
			c1.79-2.16,4.05-3.8,6.68-4.8c-0.2-0.35-0.41-0.7-0.61-1.04c-1.98,2.1-4.62,3.28-7.5,3.34c0.11,0.39,0.21,0.78,0.32,1.16
			c5.51-2.93,11.01-5.85,16.52-8.78c0.71-0.38,0.08-1.46-0.63-1.08c-5.51,2.93-11.01,5.85-16.52,8.78
			c-0.55,0.29-0.29,1.18,0.32,1.16c3.2-0.06,6.18-1.37,8.38-3.7c0.4-0.42,0.01-1.28-0.61-1.04c-2.83,1.08-5.29,2.79-7.23,5.12
			c-0.35,0.42-0.12,1.04,0.44,1.07c2.9,0.15,5.66-0.94,7.69-3.01c0.29-0.3,0.21-0.76-0.13-0.98c-1.15-0.77-2.48-0.38-3.41,0.56
			c-1.17,1.19-1.38,2.69-1.11,4.27c0.2,1.18,0.65,2.34,0.7,3.54c0.05,1.21-0.44,2.27-0.7,3.42c-0.37,1.58-0.09,3.07,0.91,4.35
			c2.31,2.94,6.8,4.05,10.15,5.24c4.55,1.62,9.19,3,13.88,4.13c5.28,1.27,10.63,2.22,16.03,2.88c0-0.42,0-0.83,0-1.25
			c-8.64,0.04-17.28,0.08-25.92,0.11c0,0.42,0,0.83,0,1.25c2.14-0.17,4.29-0.34,6.43-0.5c0.8-0.06,0.81-1.22,0-1.25
			c-1.23-0.05-2.47-0.09-3.7-0.14c0,0.42,0,0.83,0,1.25c2.19,0,4.37,0,6.56,0c0-0.42,0-0.83,0-1.25c-1.52,0-3.04,0-4.56,0
			c0,0.42,0,0.83,0,1.25c0.91-0.12,2.31-0.04,3.11-0.48c0.7-0.39,1.34-1.33,1.82-1.95c1.2-1.53,2.1-3.27,2.7-5.11
			c1.2-3.71,1.11-7.8-0.37-11.42c-0.22-0.52-1.04-0.66-1.21,0c-0.22,0.91-0.45,1.81-0.67,2.72c-0.1,0.41,0.19,0.77,0.6,0.79
			c0.9,0.05,1.58-0.33,2.25-0.89c0.4-0.33,0.81-0.88,1.28-1.09c0.23-0.1,1.68,0.04,1.39,0.35c0.35,0.2,0.7,0.41,1.04,0.61
			c1.51-5.48,1.74-11.18,0.71-16.76c-0.08-0.42-0.59-0.54-0.92-0.37c-1.71,0.88,0.7,3.1,1.93,1.93c0.8-0.77,0.31-2.02-0.36-2.68
			c-1.12-1.09-3.28-0.9-4.08-2.24c-0.41-0.69-1.47-0.08-1.08,0.63c5.31,9.68,12.54,21.49,25.11,21.34c0.62-0.01,0.84-0.84,0.32-1.16
			c-3.15-1.93-6.54-3.38-10.12-4.31c-0.6-0.16-1.06,0.6-0.61,1.04c2.64,2.57,6.11,4.01,9.8,4.04c0.63,0.01,0.84-0.85,0.32-1.16
			c-6.64-3.96-12.99-8.41-18.98-13.3c-0.5-0.41-1.42,0.13-0.98,0.76c3.71,5.36,9.15,9.28,15.42,11.07c0.58,0.17,1.09-0.62,0.61-1.04
			c-2.24-1.96-4.73-3.56-7.45-4.76c-0.54-0.24-1.2,0.27-0.86,0.86c1.87,3.17,4.57,5.71,7.87,7.35c0.16-0.38,0.32-0.76,0.48-1.14
			c-1.79-0.73-3.59-1.46-5.38-2.19c-0.69-0.28-1.03,0.77-0.48,1.14c7.02,4.85,14.53,8.9,22.43,12.12c0.63,0.26,0.97-0.63,0.61-1.04
			c-3.94-4.62-10.18-6.76-16.13-5.67c-0.54,0.1-0.59,0.89-0.15,1.14c5.52,3.18,11.33,5.81,17.37,7.86c0.61,0.21,1.03-0.62,0.61-1.04
			c-2.05-2.04-4.75-3.13-7.64-3.07c0,0.42,0,0.83,0,1.25c2.5-0.06,4.82,0.66,6.86,2.11c0.16-0.38,0.32-0.76,0.48-1.14
			c-1.47-0.42-2.94-0.84-4.42-1.26c-0.06,0.41-0.11,0.82-0.17,1.23c1.41,0.18,2.5,1.16,2.91,2.5c0.38-0.16,0.76-0.32,1.14-0.48
			c-0.56-1.32,1.69-2.98,2.7-1.86c1.02,1.13-0.76,3.19-2.04,2.57c-0.32-0.16-0.85-0.06-0.92,0.37c-0.29,1.88,2.63,2.92,3.51,1.2
			c0.49-0.97-0.43-1.74-1.37-1.68c-0.62,0.04-1.19,0.36-1.71,0.67c-0.91,0.55-1.66,1.07-2.73,1.29c-2.15,0.44-4.5,0.3-6.68,0.36
			c-2.31,0.07-4.62,0.14-6.94,0.21c-4.71,0.15-9.41,0.29-14.12,0.44c-5.37,0.17-10.74,0.33-16.1,0.5c-0.8,0.02-0.81,1.24,0,1.25
			c7.95,0.12,15.88-0.44,23.74-1.66c0.69-0.11,0.54-1.28-0.17-1.23c-2.76,0.22-5.43-2.28-5.22-5.11c0.19-2.56,2.87-4.18,5.27-3.97
			c2.67,0.23,4.13,2.75,3.71,5.26c-0.18,1.11-0.71,2.18-1.59,2.9c-0.65,0.53-1.5,0.32-2.3,0.3c-0.98-0.03-1.95-0.05-2.93-0.08
			c0,0.42,0,0.83,0,1.25c2.97-0.02,5.93-0.04,8.9-0.06c-0.06-0.41-0.11-0.82-0.17-1.23c-1.24,0.45-2.48,0.89-3.72,1.34
			c-0.62,0.22-0.58,1.27,0.17,1.23c2.07-0.1,4.13-0.21,6.2-0.31c0.8-0.04,0.81-1.28,0-1.25c-8.85,0.32-17.69,0.65-26.54,0.97
			c-0.8,0.03-0.81,1.27,0,1.25c3.07-0.08,6.13-0.15,9.2-0.23c0.8-0.02,0.81-1.26,0-1.25c-11.24,0.14-22.47,0.27-33.71,0.41
			c-0.81,0.01-0.8,1.2,0,1.25c10.01,0.65,20.06,0.57,30.06-0.23c0.79-0.06,0.82-1.24,0-1.25c-9.59-0.15-19.19,0.05-28.77,0.61
			c-0.8,0.05-0.81,1.22,0,1.25c11.34,0.41,22.7-0.05,33.97-1.36c0.78-0.09,0.82-1.28,0-1.25c-10.8,0.4-21.6,0.81-32.4,1.21
			c-0.8,0.03-0.81,1.27,0,1.25c1.53-0.03,3.06-0.06,4.59-0.09c0.8-0.02,0.81-1.24,0-1.25c-15.05-0.15-30.11-0.42-45.16-0.28
			c-0.8,0.01-0.81,1.25,0,1.25c3.05,0,6.09,0,9.14,0c0-0.42,0-0.83,0-1.25c-1.39,0.02-2.77,0.04-4.16,0.06
			c-0.63,0.01-1.33-0.05-1.47,0.73c-0.19,1.07,1.21,1.23,1.92,0.89c1.06-0.51,0.83-1.76-0.08-2.31c-0.61-0.37-1.37-0.35-2.04-0.22
			c-0.94,0.18-2.43,1.23-3.3,0.4c-0.15,0.36-0.29,0.71-0.44,1.07c11.98,0.51,23.98,0.48,35.96-0.1c0.8-0.04,0.81-1.27,0-1.25
			c-1.49,0.03-2.98,0.06-4.47,0.09c-0.67,0.01-0.89,1.11-0.17,1.23c1.64,0.26,3.29,0.53,4.93,0.79c0.06-0.41,0.11-0.82,0.17-1.23
			c-12.36-0.33-24.72-0.67-37.09-1c0.21,0.21,0.42,0.42,0.62,0.62c0.58-4.48,3.25-8.46,7.12-10.76
			C266.31,379.07,265.68,377.99,264.99,378.4L264.99,378.4z"/>
	</g>
</g>
<g>
	<g>
		<path class="st3" d="M257.52,391.71c0.8,0,0.81-1.25,0-1.25C256.71,390.46,256.71,391.71,257.52,391.71L257.52,391.71z"/>
	</g>
</g>
<g>
	<g>
		<path class="st3" d="M258.84,392.37c0.8,0,0.81-1.25,0-1.25C258.03,391.12,258.03,392.37,258.84,392.37L258.84,392.37z"/>
	</g>
</g>
<g>
	<g>
		<path class="st3" d="M258.84,392.37c0.8,0,0.81-1.25,0-1.25C258.03,391.12,258.03,392.37,258.84,392.37L258.84,392.37z"/>
	</g>
</g>
<g>
	<g>
		<path class="st3" d="M260.82,392.37c0.8,0,0.81-1.25,0-1.25C260.01,391.12,260.01,392.37,260.82,392.37L260.82,392.37z"/>
	</g>
</g>
<g>
	<g>
		<path class="st3" d="M260.16,389.73c0.8,0,0.81-1.25,0-1.25C259.35,388.48,259.35,389.73,260.16,389.73L260.16,389.73z"/>
	</g>
</g>
<g>
	<g>
		<path class="st3" d="M258.84,389.73c0.8,0,0.81-1.25,0-1.25C258.03,388.48,258.03,389.73,258.84,389.73L258.84,389.73z"/>
	</g>
</g>
<g>
	<g>
		<path class="st3" d="M363.97,385.35c-2.7-0.99-5.48-1.74-8.31-2.24c-0.06,0.41-0.11,0.82-0.17,1.23c3.3-0.13,6.52,1.54,8.27,4.35
			c0.18-0.31,0.36-0.63,0.54-0.94c-0.86,0.02-1.73,0.04-2.59,0.07c-0.81,0.02-0.8,1.2,0,1.25c0.77,0.05,1.5,0.24,2.19,0.59
			c0.11-0.39,0.21-0.78,0.32-1.16c-1.15,0-2.3,0-3.45,0c-0.76,0-0.78,0.97-0.17,1.23c1.79,0.75,3.71,0.93,5.61,0.61
			c0.72-0.12,0.51-1.2-0.17-1.23c-0.87-0.03-1.75-0.06-2.62-0.09c-0.61-0.02-0.86,0.88-0.32,1.16c0.8,0.42,1.65,0.13,2.18-0.58
			c0.55-0.73,0.6-1.67,0.14-2.46c-0.47-0.8-1.31-1.3-2.12-1.71c-0.81-0.41-1.87-0.83-2.19-1.77c-0.2,0.26-0.4,0.53-0.6,0.79
			c2.68-0.25,5.34,1.89,5.51,4.62c0.05,0.8,1.3,0.8,1.25,0c-0.22-3.36-3.37-6.18-6.76-5.87c-0.38,0.03-0.74,0.37-0.6,0.79
			c0.5,1.47,1.86,2.01,3.12,2.7c0.54,0.3,1.25,0.7,1.44,1.34c0.1,0.36-0.23,1.32-0.73,1.06c-0.11,0.39-0.21,0.78-0.32,1.16
			c0.87,0.03,1.75,0.06,2.62,0.09c-0.06-0.41-0.11-0.82-0.17-1.23c-1.68,0.28-3.38,0.05-4.95-0.61c-0.06,0.41-0.11,0.82-0.17,1.23
			c1.15,0,2.3,0,3.45,0c0.6,0,0.88-0.88,0.32-1.16c-0.89-0.45-1.82-0.7-2.82-0.76c0,0.42,0,0.83,0,1.25
			c0.86-0.02,1.73-0.04,2.59-0.07c0.46-0.01,0.8-0.53,0.54-0.94c-1.97-3.17-5.61-5.12-9.35-4.97c-0.67,0.03-0.89,1.1-0.17,1.23
			c2.83,0.5,5.61,1.25,8.31,2.24C364.4,386.83,364.72,385.62,363.97,385.35L363.97,385.35z"/>
	</g>
</g>
<g>
	<g>
		<path class="st3" d="M268.08,398.39c-1.67,0.01-3.33,0.02-5,0.03c0.06,0.41,0.11,0.82,0.17,1.23c2.12-0.59,4.28-0.8,6.48-0.65
			c0-0.42,0-0.83,0-1.25c-1.92-0.05-3.85-0.1-5.77-0.14c0.15,0.36,0.29,0.71,0.44,1.07c0.49-0.48,1.06-0.56,1.69-0.34
			c0.06-0.41,0.11-0.82,0.17-1.23c-0.53,0.01-1.26-0.11-1.73,0.17c-0.21,0.13-0.32,0.37-0.56,0.48c-0.3,0.14-0.66,0.15-0.96,0.02
			c-0.11,0.39-0.21,0.78-0.32,1.16c1.56-0.09,3.08,0.08,4.59,0.53c0-0.4,0-0.8,0-1.21c-0.63,0.11-1.27,0.22-1.9,0.32
			c-0.51,0.09-0.63,0.93-0.15,1.14c2.06,0.91,4.13,0.54,6.31,0.57c0-0.42,0-0.83,0-1.25c-0.78,0-1.56,0-2.33,0c0,0.42,0,0.83,0,1.25
			c0.76-0.02,1.53-0.04,2.29-0.05c-0.2-0.26-0.4-0.53-0.6-0.79c-0.4,1.08,0.51,2.27,1.65,2.19c0.79-0.06,0.81-1.25,0-1.25
			c-2.77,0-5.55,0-8.32,0c0,0.42,0,0.83,0,1.25c3.42-0.22,6.86-0.1,10.25,0.4c0.06-0.41,0.11-0.82,0.17-1.23
			c-1.76,0.09-3.52,0.18-5.28,0.27c-0.8,0.04-0.81,1.26,0,1.25c1-0.02,1.99-0.03,2.99-0.05c0.8-0.01,0.81-1.25,0-1.25
			c-1.41-0.01-2.82-0.05-4.22,0.06c-1.45,0.11-2.87-0.06-4.26-0.48c-0.06,0.41-0.11,0.82-0.17,1.23c0.74-0.09,1.48-0.17,2.22-0.26
			c0.78-0.09,0.81-1.32,0-1.25c-1.05,0.1-1.78-0.2-2.73-0.57c-0.76-0.29-1.93-0.08-2.74-0.08c-0.81,0-0.8,1.22,0,1.25
			c1.62,0.06,3.25,0.11,4.87,0.17c-0.11-0.39-0.21-0.78-0.32-1.16c-1.35,0.75-3.14,0.32-3.98-0.98c-0.18-0.29-0.55-0.4-0.86-0.22
			c-0.53,0.3-1.4-0.7-0.9-1.11c0.5-0.42,1.31,0.56,0.98,1.06c-0.45,0.67,0.63,1.3,1.08,0.63c1.13-1.68-1.44-4.02-2.95-2.57
			c-1.51,1.45,0.66,4.07,2.42,3.08c-0.29-0.07-0.57-0.15-0.86-0.22c1.21,1.88,3.73,2.53,5.69,1.43c0.56-0.31,0.29-1.14-0.32-1.16
			c-1.62-0.06-3.25-0.11-4.87-0.17c0,0.42,0,0.83,0,1.25c0.51,0,1.01,0,1.52,0c0.56,0,0.87,0.09,1.38,0.29
			c0.82,0.33,1.7,0.44,2.58,0.36c0-0.42,0-0.83,0-1.25c-0.74,0.09-1.48,0.17-2.22,0.26c-0.67,0.08-0.88,1.01-0.17,1.23
			c1.39,0.42,2.85,0.63,4.3,0.55c1.51-0.08,3-0.09,4.51-0.08c0-0.42,0-0.83,0-1.25c-1,0.02-1.99,0.03-2.99,0.05
			c0,0.42,0,0.83,0,1.25c1.76-0.09,3.52-0.18,5.28-0.27c0.66-0.03,0.9-1.12,0.17-1.23c-3.51-0.52-7.04-0.68-10.58-0.44
			c-0.8,0.05-0.81,1.25,0,1.25c2.77,0,5.55,0,8.32,0c0-0.42,0-0.83,0-1.25c-0.39,0.03-0.58-0.25-0.45-0.6
			c0.14-0.38-0.22-0.8-0.6-0.79c-0.76,0.02-1.53,0.04-2.29,0.05c-0.8,0.02-0.81,1.25,0,1.25c0.78,0,1.56,0,2.33,0
			c0.8,0,0.81-1.24,0-1.25c-0.98-0.01-1.92,0.01-2.89,0.08c-0.96,0.07-1.91-0.09-2.79-0.48c-0.05,0.38-0.1,0.76-0.15,1.14
			c0.63-0.11,1.27-0.22,1.9-0.32c0.64-0.11,0.55-1.04,0-1.21c-1.6-0.48-3.25-0.67-4.92-0.57c-0.55,0.03-0.93,0.9-0.32,1.16
			c1.05,0.45,2.23,0.27,2.97-0.65c-0.15,0.06-0.29,0.12-0.44,0.18c0.45-0.01,0.9-0.02,1.35-0.03c0.73-0.02,0.82-0.99,0.17-1.23
			c-1.04-0.38-2.12-0.11-2.9,0.66c-0.4,0.39-0.09,1.05,0.44,1.07c1.92,0.05,3.85,0.1,5.77,0.14c0.81,0.02,0.8-1.2,0-1.25
			c-2.3-0.16-4.59,0.08-6.81,0.69c-0.68,0.19-0.55,1.23,0.17,1.23c1.67-0.01,3.33-0.02,5-0.03
			C268.89,399.63,268.89,398.38,268.08,398.39L268.08,398.39z"/>
	</g>
</g>
<g>
	<g>
		<path class="st3" d="M263.69,397.26c-0.04,0.03-0.09,0.07-0.12,0.11c0.02-0.02,0.1-0.07,0.03-0.02c-0.02,0.02-0.04,0.03-0.07,0.05
			c-0.09,0.06-0.19,0.12-0.29,0.18c-0.05,0.02-0.1,0.05-0.15,0.07c-0.07,0.04,0.12-0.04,0.04-0.02c-0.03,0.01-0.05,0.02-0.08,0.03
			c-0.11,0.04-0.22,0.07-0.33,0.1c-0.05,0.01-0.11,0.02-0.16,0.03c-0.03,0-0.05,0.01-0.08,0.01c0.03-0.01,0.13-0.01,0.05-0.01
			c-0.11,0.01-0.22,0.02-0.32,0.02c-0.05,0-0.11,0-0.16-0.01c-0.03,0-0.07-0.01-0.1-0.01c-0.08,0,0.13,0.02,0.05,0.01
			c-0.11-0.02-0.22-0.04-0.34-0.07c-0.31-0.09-0.69,0.11-0.77,0.44c-0.08,0.33,0.1,0.67,0.44,0.77c1.14,0.32,2.38,0.01,3.25-0.78
			c0.24-0.22,0.24-0.66,0-0.88C264.31,397.02,263.95,397.03,263.69,397.26L263.69,397.26z"/>
	</g>
</g>
<g>
	<g>
		<path class="st3" d="M263.46,397.73c-1.54,0-3.08,0-4.62,0c-0.8,0-0.81,1.25,0,1.25c1.54,0,3.08,0,4.62,0
			C264.26,398.98,264.27,397.73,263.46,397.73L263.46,397.73z"/>
	</g>
</g>
<g>
	<g>
		<path class="st3" d="M265.93,397.72c-1.67,0.27-3.39,0.03-4.96-0.6c-0.31-0.13-0.69,0.14-0.77,0.44c-0.1,0.36,0.12,0.64,0.44,0.77
			c1.79,0.72,3.73,0.9,5.63,0.6c0.33-0.05,0.52-0.47,0.44-0.77C266.6,397.8,266.27,397.67,265.93,397.72L265.93,397.72z"/>
	</g>
</g>
<g>
	<g>
		<path class="st3" d="M264.12,399.05c-0.88,0-1.76,0-2.64,0c-0.33,0-0.64,0.29-0.62,0.62c0.02,0.34,0.27,0.62,0.62,0.62
			c0.88,0,1.76,0,2.64,0c0.33,0,0.64-0.29,0.62-0.62C264.73,399.33,264.47,399.05,264.12,399.05L264.12,399.05z"/>
	</g>
</g>
<g>
	<g>
		<path class="st3" d="M310.36,400.24c5.53,0.11,11.05,0.46,16.55,1.03c0.8,0.08,0.79-1.17,0-1.25c-5.5-0.57-11.02-0.91-16.55-1.03
			C309.56,398.98,309.56,400.23,310.36,400.24L310.36,400.24z"/>
	</g>
</g>
<g>
	<g>
		<path class="st3" d="M320.27,402.28c6.99,0,13.99,0,20.98,0c0.8,0,0.81-1.25,0-1.25c-1.49,0-2.98,0-4.47,0
			c-0.8,0-0.81,1.25,0,1.25c1.49,0,2.98,0,4.47,0c0-0.42,0-0.83,0-1.25c-6.99,0-13.99,0-20.98,0
			C319.46,401.03,319.46,402.28,320.27,402.28L320.27,402.28z"/>
	</g>
</g>
<g>
	<g>
		<path class="st3" d="M318.33,403.1c9.76-0.02,19.52-0.04,29.28-0.06c2.44-0.01,4.88,0.01,7.32-0.02c1.58-0.02,3.26-0.11,4.66-0.91
			c2.1-1.21,3.07-4.85,0.49-6.14c-0.72-0.36-1.35,0.72-0.63,1.08c1.43,0.71,1.04,2.74,0.01,3.63c-1.26,1.08-3.14,1.08-4.72,1.1
			c-4.03,0.03-8.07,0.02-12.1,0.03c-8.11,0.02-16.21,0.03-24.32,0.05C317.53,401.85,317.52,403.1,318.33,403.1L318.33,403.1z"/>
	</g>
</g>
</svg>
